<?xml version="1.0" standalone="no"?>
<!DOCTYPE svg PUBLIC "-//W3C//DTD SVG 1.1//EN" "http://www.w3.org/Graphics/SVG/1.1/DTD/svg11.dtd" >
<svg xmlns="http://www.w3.org/2000/svg">
<metadata></metadata>
<defs>
<font id="peugeot_expanded_mediumRg" horiz-adv-x="1392" >
<font-face units-per-em="2048" ascent="1638" descent="-410" />
<missing-glyph horiz-adv-x="614" />
<glyph unicode="&#xfb01;" horiz-adv-x="1423" d="M53 772v201h160v94q0 111 46 189.5t123 130t179.5 75t216.5 23.5q125 0 235.5 -21.5t194.5 -52.5v-240q-72 37 -184.5 69t-232.5 32q-61 0 -117 -10.5t-97.5 -35t-66.5 -63.5t-25 -94v-96h748v-973h-272v772h-476v-772h-272v772h-160z" />
<glyph unicode="&#xfb02;" horiz-adv-x="1497" d="M53 772v201h160v98q0 113 45 191.5t120 128t170 72t195 22.5q154 0 276 -25.5t202 -60.5v-1120q0 -53 25.5 -75t70.5 -22q35 0 66.5 8.5t60.5 20.5v-211q-47 -16 -95.5 -23.5t-95.5 -7.5q-168 0 -236.5 85t-68.5 251v948q-39 10 -83 16.5t-93 6.5q-55 0 -106.5 -9.5 t-91 -33t-64.5 -62t-25 -100.5v-98h246v-201h-246v-772h-272v772h-160z" />
<glyph horiz-adv-x="2048" />
<glyph horiz-adv-x="2048" />
<glyph unicode="&#xd;" horiz-adv-x="614" />
<glyph unicode=" "  horiz-adv-x="614" />
<glyph unicode="&#x09;" horiz-adv-x="614" />
<glyph unicode="&#xa0;" horiz-adv-x="614" />
<glyph unicode="!" horiz-adv-x="765" d="M223 1384h320l-37 -970h-246zM236 0v250h294v-250h-294z" />
<glyph unicode="&#x22;" horiz-adv-x="1105" d="M186 1384h269l-29 -542h-211zM651 1384h269l-29 -542h-211z" />
<glyph unicode="#" horiz-adv-x="1542" d="M37 346l39 182h258l74 346h-258l38 183h258l68 327h225l-69 -327h350l70 327h223l-70 -327h260l-39 -185h-260l-74 -344h261l-39 -182h-260l-72 -346h-223l73 346h-350l-74 -346h-225l74 346h-258zM559 528h350l72 346h-350z" />
<glyph unicode="$" horiz-adv-x="1325" d="M133 985q0 82 34 147.5t93 113.5t142 79t182 43v223h190v-213q117 -4 210 -21.5t169 -45.5v-224q-90 37 -190.5 56.5t-223.5 19.5q-55 0 -109.5 -7t-95 -25.5t-66.5 -50t-26 -81.5q0 -63 56.5 -97t140.5 -58.5t182.5 -49t182 -67.5t140 -115.5t56.5 -191.5 q0 -96 -33.5 -167t-92 -119t-135.5 -77.5t-165 -42.5v-239h-190v229q-121 8 -237 28.5t-202 61.5v219q88 -39 208 -67.5t243 -28.5q61 0 114.5 8t93.5 28.5t63.5 54.5t23.5 85q0 68 -56.5 106t-140.5 63.5t-182 50t-182 67.5t-140.5 114.5t-56.5 190.5z" />
<glyph unicode="%" horiz-adv-x="2168" d="M106 977q0 96 27 177t77 139.5t124 90t168 31.5t166.5 -31.5t124 -90t78 -139.5t26.5 -177t-26.5 -177t-78 -139.5t-124 -90t-166.5 -31.5t-168 31.5t-124 90t-77 139.5t-27 177zM313 977q0 -121 45 -193.5t144 -72.5q98 0 143 72.5t45 193.5t-45 193.5t-143 72.5 t-143.5 -72.5t-45.5 -193.5zM530 0l897 1384h211l-895 -1384h-213zM1272 408q0 96 26.5 177t76.5 139t124 91t168 33t167 -33t124 -91t77.5 -139t26.5 -177t-26.5 -176t-77.5 -138.5t-124 -91.5t-167 -33t-168 33t-124 91.5t-76.5 138t-26.5 176.5zM1479 408q0 -119 45 -192 t143 -73t143 73t45 192q0 121 -45 193.5t-143 72.5t-143 -73t-45 -193z" />
<glyph unicode="&#x26;" horiz-adv-x="1683" d="M121 410q0 72 23.5 131t64.5 104t95 75t116 46q-106 35 -173 102.5t-67 184.5q0 90 48 157.5t131 113.5t196 68.5t242 22.5q51 0 107.5 -5t109.5 -14.5t102 -22.5t88 -27v-226q-80 37 -186.5 58.5t-214.5 21.5q-66 0 -123 -9t-100 -29.5t-68 -52.5t-25 -77t21.5 -76.5 t58.5 -52t87.5 -30t107.5 -9.5h112v-219h-106q-68 0 -129 -11t-108.5 -36t-75 -67t-27.5 -103q0 -125 102.5 -184.5t268.5 -59.5q186 0 294.5 87t108.5 282h-198v209h649v-209h-183q0 -123 -39.5 -230.5t-123.5 -185.5t-214 -123t-309 -45q-162 0 -285.5 32t-207.5 90.5 t-127 139t-43 179.5z" />
<glyph unicode="'" horiz-adv-x="641" d="M186 1384h269l-29 -542h-211z" />
<glyph unicode="(" horiz-adv-x="710" d="M129 532q0 147 28.5 277.5t75 244t105.5 213t121 187.5h241q-51 -88 -108 -182t-106.5 -205t-81 -243t-31.5 -292t31.5 -291.5t81 -242.5t106.5 -205t108 -182h-241q-61 88 -120.5 187.5t-106 213t-75 243.5t-28.5 277z" />
<glyph unicode=")" horiz-adv-x="710" d="M11 -389h241q61 88 120.5 187.5t106 213t75 243.5t28.5 277t-28.5 277.5t-75 244t-105.5 213t-121 187.5h-241q51 -88 108 -182t106.5 -205t81 -243t31.5 -292t-31.5 -291.5t-81 -242.5t-106.5 -205t-108 -182z" />
<glyph unicode="*" horiz-adv-x="948" d="M74 1077l55 180l266 -98l-35 225h228l-35 -225l266 98l55 -180l-264 -43l183 -182l-170 -121l-150 221l-147 -221l-170 121l182 182z" />
<glyph unicode="+" d="M135 541v192h453v375h211v-375h458v-192h-458v-375h-211v375h-453z" />
<glyph unicode="," horiz-adv-x="663" d="M-10 -242q117 57 173 132t56 178q0 41 -7 87t-26 95h269q16 -45 22 -91t6 -87q0 -166 -104.5 -294t-296.5 -198z" />
<glyph unicode="-" horiz-adv-x="966" d="M170 473v211h627v-211h-627z" />
<glyph unicode="." horiz-adv-x="663" d="M184 0v250h293v-250h-293z" />
<glyph unicode="/" horiz-adv-x="905" d="M0 0l674 1384h231l-674 -1384h-231z" />
<glyph unicode="0" horiz-adv-x="1589" d="M133 692q0 160 44 293t128 228.5t207 148.5t283 53t282.5 -53t207.5 -148.5t128 -228.5t43 -293t-43 -293t-128 -228t-208 -148.5t-282 -53.5q-160 0 -283 53.5t-207 148.5t-128 228t-44 293zM440 692q0 -115 20.5 -208t64.5 -160.5t110.5 -104.5t159.5 -37 q92 0 159.5 37t110.5 104.5t63.5 161t20.5 207.5q0 115 -20.5 209t-63.5 160.5t-110.5 103.5t-159.5 37t-159 -37t-111 -103.5t-64.5 -160.5t-20.5 -209z" />
<glyph unicode="1" horiz-adv-x="886" d="M45 1171v213h608v-1384h-295v1171h-313z" />
<glyph unicode="2" horiz-adv-x="1294" d="M90 0v182l508 430q125 106 181.5 189.5t56.5 173.5q0 61 -24 104t-65.5 71t-97 40t-117.5 12q-113 0 -216 -31.5t-169 -66.5v227q86 39 194 61.5t226 22.5q113 0 216.5 -23.5t183.5 -74.5t128 -133t48 -197q0 -98 -26.5 -174t-76 -140.5t-120 -124t-158.5 -126.5 l-277 -211h676v-211h-1071z" />
<glyph unicode="3" horiz-adv-x="1300" d="M111 55v224q37 -18 86 -36t104 -31t114.5 -21.5t114.5 -8.5q150 0 241 56.5t91 173.5q0 68 -30.5 110.5t-80 67t-111.5 34t-126 9.5q-47 0 -89 -1t-73 -5v190l455 354h-676v213h1024v-196l-473 -373q92 -6 180 -30.5t155.5 -72.5t109.5 -121t42 -173q0 -111 -46 -195 t-128 -140t-194.5 -85t-247.5 -29q-121 0 -235.5 22.5t-206.5 63.5z" />
<glyph unicode="4" horiz-adv-x="1357" d="M33 348v211l743 825h344v-827h178v-209h-178v-348h-278v348h-809zM332 557h510v567z" />
<glyph unicode="5" horiz-adv-x="1359" d="M135 55v224q37 -18 88 -36t109.5 -31t120 -21.5t116.5 -8.5q70 0 129.5 13.5t103.5 42t68.5 74.5t24.5 112q0 68 -27.5 114t-76 72.5t-111 37.5t-129.5 11q-94 0 -183 -13t-149 -30l-57 50l110 718h891v-213h-649l-49 -309q35 4 70.5 6t74.5 2q111 0 217.5 -21.5 t189.5 -71.5t134 -132t51 -203q0 -127 -49 -217t-132 -146t-192.5 -83t-232.5 -27q-133 0 -251 22.5t-210 63.5z" />
<glyph unicode="6" horiz-adv-x="1429" d="M102 657q0 213 60.5 357.5t161 233.5t232.5 128t275 39q111 0 210.5 -15.5t183.5 -49.5v-224q-61 29 -160.5 52.5t-216.5 23.5q-92 0 -174 -21.5t-141.5 -71.5t-95.5 -133t-36 -206q59 45 154.5 80t218.5 35q102 0 197.5 -24.5t169 -76t118 -133.5t44.5 -194 q0 -106 -40 -196.5t-115 -155t-184.5 -100.5t-246.5 -36q-139 0 -252 44t-194 130t-125 215t-44 299zM408 547q0 -168 85 -266.5t226 -98.5q61 0 113.5 16.5t90.5 48.5t60.5 79t22.5 108q0 123 -77 179.5t-206 56.5q-49 0 -96 -10.5t-88 -27t-76 -38.5t-55 -47z" />
<glyph unicode="7" horiz-adv-x="1210" d="M63 1171v213h1100v-196q-125 -121 -225 -246t-178 -267.5t-131.5 -308t-83.5 -366.5h-318q27 182 82.5 350t132 316.5t171 275.5t200.5 229h-750z" />
<glyph unicode="8" horiz-adv-x="1476" d="M127 377q0 76 20.5 131t57.5 96t88 69.5t110 49.5q-45 18 -89 44t-77.5 62.5t-54 88t-20.5 120.5q0 86 42 156t118.5 119t183 75.5t233.5 26.5t232.5 -26.5t182.5 -75.5t119 -119t42 -156q0 -70 -20.5 -121t-54.5 -87.5t-78 -62.5t-89 -44q59 -20 110.5 -49t88.5 -70 t58.5 -96t21.5 -131q0 -84 -42 -159t-120 -130t-193 -87t-258 -32q-145 0 -258.5 32t-192.5 87t-120 130t-41 159zM436 395q0 -55 24.5 -95t65.5 -65.5t96.5 -39t116.5 -13.5t115.5 13.5t95.5 39t65.5 65.5t24.5 95q0 57 -24.5 98.5t-65.5 67t-95.5 37.5t-115.5 12 t-116.5 -12t-96.5 -37.5t-65.5 -66.5t-24.5 -99zM471 1014q0 -53 21.5 -89t58.5 -57.5t86 -32t102 -10.5t101.5 10.5t85.5 32t58.5 57.5t21.5 89q0 51 -21.5 87t-58.5 58.5t-85 32.5t-102 10q-55 0 -103 -10t-85 -32.5t-58.5 -58.5t-21.5 -87z" />
<glyph unicode="9" horiz-adv-x="1429" d="M109 928q0 106 42 196t118.5 154.5t183 100.5t237.5 36q141 0 256 -45t196 -131t124 -213t43 -291q0 -215 -59.5 -362.5t-160 -236.5t-231.5 -128t-272 -39q-225 0 -400 70v223q66 -29 164.5 -54.5t214.5 -25.5q94 0 174 22.5t139.5 73t94.5 132t39 202.5 q-59 -45 -154.5 -78.5t-216.5 -33.5q-102 0 -198.5 24.5t-170 75.5t-118.5 132t-45 196zM406 950q0 -123 79.5 -180t208.5 -57q47 0 94.5 10t88.5 27.5t74 39t53 46.5q0 180 -83 273t-225 93q-59 0 -111.5 -16.5t-92 -49t-63 -78.5t-23.5 -108z" />
<glyph unicode=":" horiz-adv-x="663" d="M184 0v250h293v-250h-293zM184 723v250h293v-250h-293z" />
<glyph unicode=";" horiz-adv-x="663" d="M-14 -242q117 57 173 132t56 178q0 41 -7 87t-26 95h269q16 -45 22 -91t6 -87q0 -166 -104.5 -294t-296.5 -198zM184 723v250h293v-250h-293z" />
<glyph unicode="&#x3c;" d="M135 545v188l1122 412v-203l-860 -303l860 -303v-205z" />
<glyph unicode="=" d="M135 309v195h1122v-195h-1122zM135 768v195h1122v-195h-1122z" />
<glyph unicode="&#x3e;" d="M136 131l1122 414v188l-1122 412v-203l860 -303l-860 -303v-205z" />
<glyph unicode="?" horiz-adv-x="1030" d="M131 1139v223q53 23 135 38t180 15q92 0 178.5 -19.5t152 -61.5t105.5 -108.5t40 -162.5q0 -76 -25 -132.5t-61.5 -99.5t-78.5 -76.5t-79 -67.5t-61.5 -70.5t-24.5 -84.5v-118h-264v143q0 74 22.5 126t55 92t71.5 71t72 60.5t55.5 63.5t22.5 81q0 43 -18.5 71.5t-49.5 46 t-70.5 24.5t-82.5 7q-74 0 -151 -19.5t-124 -41.5zM313 0v248h293v-248h-293z" />
<glyph unicode="@" horiz-adv-x="1875" d="M106 526q0 160 68 288t183.5 217t268 137.5t324.5 48.5q184 0 335 -45.5t258.5 -127t166.5 -196.5t59 -254q0 -197 -96 -310.5t-289 -113.5q-84 0 -145 25.5t-92 72.5q-104 -98 -254 -98q-74 0 -136.5 21.5t-109.5 63.5t-73.5 103.5t-26.5 141.5q0 90 33.5 154.5 t90 105.5t130 59.5t151.5 18.5q90 0 172 -18.5t152 -53.5v-297q0 -141 139 -141q74 0 126 58t52 204q0 111 -46 197.5t-130 147t-202.5 93.5t-264.5 33q-139 0 -260 -34t-211 -101.5t-142 -168t-52 -231.5q0 -160 55 -269.5t148.5 -177t217 -97t261.5 -29.5 q123 0 247.5 16.5t235.5 53.5v-158q-111 -37 -241 -53.5t-246 -16.5q-172 0 -327 41t-272.5 130t-187.5 227.5t-70 332.5zM752 504q0 -88 46 -132t122 -44q63 0 105 34.5t58 75.5v215q-59 25 -133 25q-80 0 -139 -38t-59 -136z" />
<glyph unicode="A" horiz-adv-x="1546" d="M-14 0l653 1384h270l652 -1384h-322l-133 289h-703l-133 -289h-284zM498 496h514l-256 571z" />
<glyph unicode="B" horiz-adv-x="1554" d="M246 0v1384h530q309 0 466 -96t157 -270q0 -68 -23.5 -119t-61.5 -89t-86 -62.5t-98 -36.5q59 -12 114.5 -36t98.5 -62t69 -91t26 -125q0 -98 -46 -171.5t-132 -124t-208 -76t-276 -25.5h-530zM541 211h237q160 0 257.5 45t97.5 150q0 102 -92.5 148t-258.5 46h-241v-389 zM541 805h213q156 0 247 42t91 144q0 104 -88.5 142t-245.5 38h-217v-366z" />
<glyph unicode="C" horiz-adv-x="1533" d="M123 692q0 158 56.5 291t163 229.5t262 149.5t351.5 53q133 0 249 -19.5t188 -52.5v-219q-72 35 -180.5 56.5t-233.5 21.5t-226.5 -34.5t-173 -100.5t-110.5 -160t-39 -215t39 -215t110.5 -159.5t173 -100.5t226.5 -35q115 0 224.5 23.5t201.5 68.5v-219 q-86 -41 -193.5 -63.5t-253.5 -22.5q-199 0 -353 53.5t-261.5 149.5t-164 229.5t-56.5 290.5z" />
<glyph unicode="D" horiz-adv-x="1789" d="M246 0v1384h557q201 0 361.5 -45t272 -132t171 -217t59.5 -298q0 -170 -59.5 -299t-171 -217t-272 -132t-361.5 -44h-557zM541 211h250q131 0 236.5 27.5t179 86t113.5 149.5t40 218t-40 217t-113.5 148.5t-179 86t-236.5 27.5h-250v-960z" />
<glyph unicode="E" horiz-adv-x="1437" d="M225 354v1030h1035v-213h-740v-360h666v-211h-666v-246q0 -72 36 -107.5t124 -35.5h612v-211h-661q-215 0 -310.5 90t-95.5 264z" />
<glyph unicode="F" horiz-adv-x="1415" d="M246 0v1384h1028v-213h-733v-395h657v-211h-657v-565h-295z" />
<glyph unicode="G" horiz-adv-x="1902" d="M123 692q0 197 78 335t207 224t294.5 125t341.5 39q172 0 325 -28.5t278 -81.5v-228q-109 49 -265.5 87t-330.5 38q-121 0 -232.5 -25.5t-197.5 -85t-138.5 -157.5t-52.5 -242q0 -133 46 -228t125 -158.5t183.5 -93.5t223.5 -30q117 0 216 19.5t181 54.5v317h-440v209 h725v-647q-55 -31 -131 -60.5t-166 -53t-192.5 -38t-211.5 -14.5q-180 0 -337.5 44t-275.5 134.5t-185.5 226.5t-67.5 318z" />
<glyph unicode="H" horiz-adv-x="1898" d="M246 0v1384h295v-565h817v565h295v-1384h-295v602h-817v-602h-295z" />
<glyph unicode="I" horiz-adv-x="786" d="M246 0v1384h295v-1384h-295z" />
<glyph unicode="J" horiz-adv-x="989" d="M63 14v219q49 -23 106.5 -37t115.5 -14q100 0 143 43t43 144v1015h295v-1001q0 -213 -113.5 -313.5t-322.5 -100.5q-141 0 -267 45z" />
<glyph unicode="K" horiz-adv-x="1583" d="M246 0v1384h295v-591l676 591h346l-752 -661l772 -723h-379l-663 616v-616h-295z" />
<glyph unicode="L" horiz-adv-x="1288" d="M225 354v1030h295v-1030q0 -72 36 -107.5t126 -35.5h565v-211h-614q-215 0 -311.5 89t-96.5 265z" />
<glyph unicode="M" horiz-adv-x="2265" d="M246 0v1384h303l584 -856l583 856h303v-1384h-290v950l-463 -682h-267l-462 682v-950h-291z" />
<glyph unicode="N" horiz-adv-x="1878" d="M246 0v1384h256l846 -972v972h284v-1384h-254l-848 971v-971h-284z" />
<glyph unicode="O" horiz-adv-x="1953" d="M123 692q0 168 61.5 302t174 227.5t270.5 143.5t348 50t348 -50t270.5 -143.5t174 -227.5t61.5 -302t-61.5 -302t-174 -227t-270.5 -143.5t-348 -50.5t-348 50.5t-270.5 143.5t-174 227t-61.5 302zM430 692q0 -115 37 -209t106.5 -160.5t171 -103.5t232.5 -37t232.5 37 t171 103.5t106.5 161t37 208.5q0 115 -37 209t-106.5 160.5t-171 103.5t-232.5 37t-232.5 -37t-171 -103.5t-106.5 -160.5t-37 -209z" />
<glyph unicode="P" horiz-adv-x="1576" d="M246 0v1384h551q152 0 273.5 -28.5t206.5 -86t130 -141.5t45 -194q0 -113 -46 -197t-131 -140t-207 -85t-271 -29h-256v-483h-295zM541 696h256q74 0 138 12.5t111.5 41t74 73.5t26.5 111t-26.5 111t-74 73.5t-112 40.5t-137.5 12h-256v-475z" />
<glyph unicode="Q" horiz-adv-x="1953" d="M123 692q0 168 61.5 302t174 227.5t270 143.5t348.5 50q190 0 348 -50t270.5 -143.5t174 -227.5t61.5 -302q0 -133 -39 -244.5t-111.5 -199.5t-175 -149.5t-231.5 -94.5l350 -338h-360l-256 303h-31q-190 0 -348 50.5t-270.5 143.5t-174 227t-61.5 302zM430 692 q0 -115 37 -209t106.5 -160.5t171 -103.5t232.5 -37t232.5 37t171 103.5t106.5 160.5t37 209t-37 209t-106.5 160.5t-171 103.5t-232.5 37t-232.5 -37t-171 -103.5t-106.5 -160.5t-37 -209z" />
<glyph unicode="R" horiz-adv-x="1552" d="M246 0v1384h551q152 0 273.5 -28.5t206.5 -86t130 -141.5t45 -194q0 -162 -100.5 -260.5t-284.5 -134.5l426 -539h-338l-375 483h-239v-483h-295zM541 696h256q74 0 138 12.5t111.5 41t74 73.5t26.5 111t-26.5 111t-74 73.5t-112 40.5t-137.5 12h-256v-475z" />
<glyph unicode="S" horiz-adv-x="1372" d="M156 1001q0 102 46 180.5t128 130.5t191.5 77.5t238.5 25.5q135 0 238.5 -20.5t177.5 -51.5v-219q-57 29 -165 53.5t-227 24.5q-63 0 -121.5 -9t-102.5 -30.5t-70.5 -57.5t-26.5 -89q0 -66 56 -102.5t142.5 -62.5t184.5 -51.5t184 -71.5t142.5 -122t56.5 -200 q0 -123 -50.5 -207t-133 -134.5t-189 -73t-217.5 -22.5q-131 0 -254 25.5t-215 66.5v222q86 -41 207 -71t244 -30q59 0 113 9.5t96 31t67 57t25 87.5q0 57 -33 95t-87 63.5t-123 44t-140.5 39t-140 49t-123 72.5t-87 109.5t-32.5 161.5z" />
<glyph unicode="T" horiz-adv-x="1431" d="M41 1171v213h1350v-213h-529v-1171h-295v1171h-526z" />
<glyph unicode="U" horiz-adv-x="1705" d="M205 498v886h295v-886q0 -84 26.5 -143.5t74.5 -97.5t112.5 -56.5t140.5 -18.5t141.5 18.5t113.5 56.5t75.5 97.5t27.5 143.5v886h289v-886q0 -131 -49 -229.5t-136 -165t-206 -100.5t-256 -34q-139 0 -257 34t-206 100.5t-137 165t-49 229.5z" />
<glyph unicode="V" horiz-adv-x="1570" d="M0 1384h317l486 -1067l483 1067h285l-664 -1384h-260z" />
<glyph unicode="W" horiz-adv-x="2375" d="M10 1384h307l334 -1071l400 1071h274l399 -1071l334 1071h307l-456 -1384h-318l-403 1063l-404 -1063h-317z" />
<glyph unicode="X" horiz-adv-x="1525" d="M10 0l588 702l-557 682h340l391 -471l393 471h322l-559 -667l588 -717h-340l-418 508l-424 -508h-324z" />
<glyph unicode="Y" horiz-adv-x="1466" d="M0 1384h328l420 -602l419 602h299l-587 -833v-551h-295v551z" />
<glyph unicode="Z" horiz-adv-x="1462" d="M92 0v182l901 989h-882v213h1239v-194l-885 -979h907v-211h-1280z" />
<glyph unicode="[" horiz-adv-x="804" d="M246 -389v1843h504v-209h-265v-1423h265v-211h-504z" />
<glyph unicode="\" horiz-adv-x="905" d="M0 1384l674 -1384h231l-674 1384h-231z" />
<glyph unicode="]" horiz-adv-x="804" d="M53 -178v-211h504v1843h-504v-209h265v-1423h-265z" />
<glyph unicode="^" d="M104 489l502 895h180l502 -895h-233l-359 644l-358 -644h-234z" />
<glyph unicode="_" horiz-adv-x="1439" d="M51 -31h1338v-176h-1338v176z" />
<glyph unicode="`" horiz-adv-x="1228" d="M317 1454h304l184 -309h-207z" />
<glyph unicode="a" horiz-adv-x="1363" d="M102 473q0 131 46.5 230.5t129 166t195.5 100.5t248 34q129 0 234.5 -19.5t215.5 -54.5v-930h-219l-20 96q-70 -59 -146.5 -93t-187.5 -34q-96 0 -185 30t-158 92.5t-111 157.5t-42 224zM379 483q0 -80 21.5 -137t59.5 -93t89 -53.5t110 -17.5q68 0 130.5 22.5 t109.5 67.5v504q-80 25 -172 25q-68 0 -131.5 -16.5t-111.5 -54.5t-76.5 -98.5t-28.5 -148.5z" />
<glyph unicode="b" horiz-adv-x="1361" d="M188 57v1397h273v-522q53 29 125.5 50.5t165.5 21.5q98 0 189 -29t162 -90.5t112.5 -156.5t41.5 -226q0 -125 -41.5 -224.5t-119.5 -168t-189.5 -104.5t-251.5 -36q-170 0 -286.5 29t-180.5 59zM461 199q41 -16 89 -21.5t93 -5.5q68 0 129.5 16.5t107.5 54.5t73.5 98 t27.5 148q0 158 -81 235t-198 77q-74 0 -134 -24.5t-107 -59.5v-518z" />
<glyph unicode="c" horiz-adv-x="1157" d="M102 487q0 117 42 212.5t120 163t189.5 104.5t251.5 37q186 0 309 -52v-213q-72 33 -139.5 47.5t-147.5 14.5q-162 0 -254 -81t-92 -235q0 -152 92 -232.5t252 -80.5q86 0 159.5 19.5t141.5 54.5v-215q-63 -29 -147 -45.5t-187 -16.5q-139 0 -248.5 39t-185.5 108.5 t-116 165t-40 205.5z" />
<glyph unicode="d" horiz-adv-x="1363" d="M102 473q0 131 46.5 230.5t129 166t196.5 100.5t249 34q92 0 176 -19v469h272v-1454h-221l-18 96q-61 -59 -143 -93t-191 -34q-96 0 -185 30t-158 92.5t-111 157.5t-42 224zM379 483q0 -80 21.5 -137t59.5 -93t89 -53.5t110 -17.5q143 0 240 90v504q-39 12 -83 18.5 t-87 6.5q-68 0 -131 -16.5t-112.5 -54.5t-78 -98.5t-28.5 -148.5z" />
<glyph unicode="e" horiz-adv-x="1308" d="M104 489q0 121 42 216.5t118 162t179.5 101.5t226.5 35q139 0 240.5 -39t168 -101.5t98 -144.5t31.5 -168v-162h-811q12 -61 47 -103t84.5 -66.5t110.5 -36t129 -11.5q111 0 220.5 22.5t185.5 55.5v-205q-39 -18 -91.5 -32.5t-111 -23.5t-117.5 -14.5t-115 -5.5 q-305 0 -470 137.5t-165 382.5zM391 575h539q-4 113 -77 169.5t-189 56.5q-115 0 -185.5 -54.5t-87.5 -171.5z" />
<glyph unicode="f" horiz-adv-x="796" d="M53 772v201h160v133q0 100 35 173t93 118t135 66.5t163 21.5t158 -19v-209q-31 10 -60.5 13.5t-62.5 3.5q-82 0 -135.5 -38t-53.5 -132v-131h295v-201h-295v-772h-272v772h-160z" />
<glyph unicode="g" horiz-adv-x="1363" d="M102 483q0 125 46.5 222.5t129 163t196.5 100.5t247 35q129 0 235.5 -18.5t214.5 -53.5v-905q0 -115 -40.5 -199t-115.5 -139.5t-178.5 -82t-228.5 -26.5q-145 0 -258.5 25.5t-185.5 58.5v223q74 -41 185.5 -72.5t234.5 -31.5q68 0 126 11t100 39t66.5 74t24.5 113v68 q-51 -41 -128 -68.5t-175 -27.5q-96 0 -185 27.5t-158 88t-111 153.5t-42 222zM381 496q0 -156 77 -226.5t206 -70.5q68 0 129 22.5t108 67.5v487q-86 25 -174 25q-68 0 -131.5 -16.5t-110.5 -52.5t-75.5 -94t-28.5 -142z" />
<glyph unicode="h" horiz-adv-x="1386" d="M193 0v1454h272v-555q61 45 144 75t194 30q84 0 158.5 -21.5t130 -67t87 -113t31.5 -161.5v-641h-272v623q0 92 -56.5 130t-148.5 38q-76 0 -145.5 -26t-122.5 -60v-705h-272z" />
<glyph unicode="i" horiz-adv-x="657" d="M193 0v973h272v-973h-272zM193 1176v239h272v-239h-272z" />
<glyph unicode="j" horiz-adv-x="657" d="M-29 -176q29 -12 59.5 -20.5t65.5 -8.5q45 0 71 21.5t26 74.5v1082h272v-1036q0 -172 -67.5 -264.5t-237.5 -92.5q-47 0 -95.5 8.5t-93.5 24.5v211zM193 1176v239h272v-239h-272z" />
<glyph unicode="k" horiz-adv-x="1261" d="M188 0v1454h273v-852l448 371h330l-526 -430l549 -543h-340l-461 451v-451h-273z" />
<glyph unicode="l" horiz-adv-x="720" d="M172 305v1149h272v-1175q0 -53 26 -75t71 -22q35 0 66.5 8.5t60.5 20.5v-211q-47 -16 -95.5 -23.5t-95.5 -7.5q-168 0 -236.5 85t-68.5 251z" />
<glyph unicode="m" horiz-adv-x="2105" d="M193 0v973h243l17 -82q66 45 146.5 79t191.5 34q119 0 200.5 -36t138.5 -108q80 63 180.5 103.5t225.5 40.5q86 0 158.5 -24t125 -70t81 -114.5t28.5 -160.5v-635h-272v606q0 45 -17.5 79t-46 55.5t-66.5 31.5t-77 10q-74 0 -142.5 -23.5t-117.5 -58.5q4 -14 5 -31.5 t1 -33.5v-635h-272v606q0 47 -16.5 81t-44 55.5t-65.5 30.5t-79 9q-68 0 -134.5 -21.5t-119.5 -55.5v-705h-272z" />
<glyph unicode="n" horiz-adv-x="1406" d="M193 0v973h243l17 -82q70 53 163 83t195 30q88 0 164 -24t133 -71t90 -120.5t33 -174.5v-614h-273v594q0 51 -18 87t-50 58.5t-73 32.5t-84 10q-82 0 -148.5 -21.5t-119.5 -55.5v-705h-272z" />
<glyph unicode="o" horiz-adv-x="1404" d="M102 487q0 121 44 216.5t123 162t189.5 102.5t243.5 36t244 -36t189.5 -102.5t123 -162t44.5 -216.5t-44.5 -217t-123 -162.5t-189 -102.5t-244.5 -36q-133 0 -243.5 36t-189.5 102.5t-123 163t-44 216.5zM381 487q0 -147 89 -231t232 -84t232.5 84t89.5 231t-89 230.5 t-233 83.5q-143 0 -232 -83t-89 -231z" />
<glyph unicode="p" horiz-adv-x="1363" d="M193 -389v1362h243l17 -80q49 41 124.5 76t190.5 35q92 0 181 -30t159 -93.5t112 -159.5t42 -227q0 -125 -45.5 -222.5t-124 -165t-184 -102.5t-226.5 -35q-104 0 -217 19v-377h-272zM465 199q41 -16 89 -21.5t93 -5.5q68 0 129.5 16.5t107.5 54.5t73.5 97t27.5 145 q0 160 -80 238t-200 78q-68 0 -130.5 -24.5t-109.5 -69.5v-508z" />
<glyph unicode="q" horiz-adv-x="1363" d="M102 473q0 131 46.5 230.5t129 166t195.5 100.5t248 34q129 0 234.5 -19.5t215.5 -54.5v-1319h-272v459q-61 -47 -132 -74t-169 -27q-96 0 -185 30t-158 92.5t-111 157.5t-42 224zM379 483q0 -80 21.5 -137t59.5 -93t89 -53.5t110 -17.5q143 0 240 90v504q-80 25 -172 25 q-68 0 -131.5 -16.5t-111.5 -54.5t-76.5 -98.5t-28.5 -148.5z" />
<glyph unicode="r" horiz-adv-x="897" d="M193 0v973h245l17 -135q35 29 77.5 58.5t92 53t105.5 39t122 15.5v-244q-94 0 -198.5 -29t-188.5 -88v-643h-272z" />
<glyph unicode="s" horiz-adv-x="1142" d="M109 676q0 88 40.5 149.5t111.5 101.5t164 58.5t196 18.5q115 0 213 -16.5t159 -39.5v-209q-25 10 -64.5 21.5t-87.5 21t-101.5 14.5t-104.5 5q-49 0 -95 -5t-80 -17.5t-54.5 -32t-20.5 -48.5q0 -41 48 -59t121 -30.5t157 -27t156.5 -46t120.5 -89t48 -155.5 q0 -86 -39 -147.5t-106.5 -100.5t-156.5 -56.5t-189 -17.5q-127 0 -229.5 21.5t-188.5 58.5v213q31 -16 77 -32.5t101 -29t115.5 -20.5t120.5 -8q45 0 86 4t70.5 16.5t47 33t17.5 53.5q0 41 -48 61t-121 34.5t-158 29t-157.5 45t-120.5 83t-48 144.5z" />
<glyph unicode="t" horiz-adv-x="890" d="M55 772v201h160l39 309h233v-309h320v-201h-320v-455q0 -78 41 -106.5t103 -28.5q47 0 98 14.5t94 36.5v-210q-47 -25 -114.5 -39.5t-145.5 -14.5q-180 0 -264 87t-84 249v467h-160z" />
<glyph unicode="u" horiz-adv-x="1353" d="M166 356v617h272v-600q0 -96 53.5 -143.5t151.5 -47.5q76 0 137.5 28t110.5 75v688h270v-973h-221l-20 96q-66 -53 -149 -90t-198 -37q-195 0 -301 97.5t-106 289.5z" />
<glyph unicode="v" horiz-adv-x="1191" d="M14 973h289l299 -699l301 699h275l-457 -973h-266z" />
<glyph unicode="w" horiz-adv-x="1914" d="M20 973h281q59 -174 118.5 -345t119.5 -343l276 688h287q70 -174 137.5 -345t136.5 -343q119 340 238 688h280q-92 -244 -184 -486.5t-184 -486.5h-266l-302 715l-301 -715h-268z" />
<glyph unicode="x" horiz-adv-x="1177" d="M18 0l404 489l-397 484h325l244 -307l246 307h305l-395 -484l407 -489h-326l-256 311l-253 -311h-304z" />
<glyph unicode="y" horiz-adv-x="1353" d="M166 381v592h272v-576q0 -98 54.5 -145t150.5 -47q74 0 137.5 27.5t110.5 74.5v666h270v-944q0 -117 -42 -202t-115.5 -140.5t-172 -81t-210.5 -25.5q-129 0 -223.5 19.5t-180.5 54.5v223q63 -37 165.5 -66.5t215.5 -29.5q61 0 114.5 12t93.5 40t62.5 74t22.5 116v73 q-61 -45 -138 -74.5t-180 -29.5q-195 0 -301 97t-106 292z" />
<glyph unicode="z" horiz-adv-x="1159" d="M113 0v156l557 622h-553v195h911v-160l-553 -618h567v-195h-929z" />
<glyph unicode="{" horiz-adv-x="804" d="M35 430v209q63 18 108 33.5t75 38t44 56.5t14 89v219q0 86 19.5 155.5t67 120t127 77t200.5 26.5h72v-209h-78q-49 0 -81 -12t-50 -34.5t-24.5 -54.5t-6.5 -69v-219q0 -78 -21.5 -132t-58 -93t-87 -62.5t-107.5 -36.5q57 -12 107.5 -35.5t87 -62.5t58 -94t21.5 -131v-219 q0 -37 6.5 -69t24.5 -53.5t50 -33.5t81 -12h78v-211h-72q-121 0 -200.5 26.5t-127 76.5t-67 120t-19.5 156v219q0 55 -14 89t-44 57.5t-75 40t-108 34.5z" />
<glyph unicode="|" horiz-adv-x="675" d="M236 -389v2027h204v-2027h-204z" />
<glyph unicode="}" horiz-adv-x="804" d="M43 -178v-211h72q121 0 200.5 26.5t127 76.5t67 120t19.5 156v219q0 55 14 89t44 57.5t75 40t108 34.5v209q-63 18 -108 33.5t-75 38t-44 56.5t-14 89v219q0 86 -19.5 155.5t-67 120t-127 77t-200.5 26.5h-72v-209h78q49 0 81 -12t50 -34.5t24.5 -54.5t6.5 -69v-219 q0 -78 21.5 -132t58 -93t87 -62.5t107.5 -36.5q-57 -12 -107.5 -35.5t-87 -62.5t-58 -94t-21.5 -131v-219q0 -37 -6.5 -69t-24.5 -53.5t-50 -33.5t-81 -12h-78z" />
<glyph unicode="~" d="M111 477q0 70 18 129.5t56 102.5t94.5 67.5t134.5 24.5q61 0 139 -20.5t155.5 -46t148.5 -46t120 -20.5q57 0 78.5 33.5t21.5 93.5h203q0 -70 -18.5 -129.5t-56.5 -102.5t-94 -67.5t-132 -24.5q-61 0 -139 20.5t-157 46t-149.5 46t-119.5 20.5q-55 0 -78 -33.5t-23 -93.5 h-202z" />
<glyph unicode="&#xa1;" horiz-adv-x="765" d="M223 -389l37 954h244l37 -954h-318zM236 723v250h292v-250h-292z" />
<glyph unicode="&#xa2;" horiz-adv-x="1271" d="M100 690q0 111 33 210t96.5 177t156.5 131.5t216 75.5v307h191v-293q88 -2 176 -18t153 -45v-217q-78 29 -160.5 46t-166.5 17q-82 0 -156 -20.5t-130 -66.5t-90 -120.5t-34 -183.5q0 -106 32 -181t86 -123t128 -70.5t160 -22.5q82 0 170 19.5t174 54.5v-215 q-59 -31 -150.5 -50.5t-191.5 -23.5v-303h-191v317q-123 23 -216 77t-156.5 132t-96.5 177.5t-33 211.5z" />
<glyph unicode="&#xa3;" horiz-adv-x="1249" d="M59 621v170h191q-16 53 -25.5 99t-9.5 101q0 100 44 180t119 133.5t175 82t211 28.5q102 0 197.5 -17.5t173.5 -49.5v-220q-53 27 -147.5 50.5t-203.5 23.5q-129 0 -208.5 -48t-79.5 -159q0 -57 10 -101t33 -103h491v-170h-430q8 -35 14.5 -73t6.5 -69q0 -90 -37 -152.5 t-129 -115.5h706v-211h-1055v182q127 55 180.5 120t53.5 163q0 35 -8 75t-21 81h-252z" />
<glyph unicode="&#xa4;" d="M133 279l193 192q-63 98 -64 223q0 121 64 224l-193 192l154 154l194 -195q94 59 215 59t215 -59l195 195l154 -154l-193 -192q63 -103 63 -224q0 -125 -63 -223l193 -192l-154 -156l-195 196q-96 -61 -215 -61t-215 61l-194 -196zM483 694q0 -92 61.5 -153.5 t151.5 -61.5t151.5 61.5t61.5 153.5q0 45 -16 84t-45 67.5t-68 46t-84 17.5t-84 -17.5t-67.5 -46t-45 -67.5t-16.5 -84z" />
<glyph unicode="&#xa5;" horiz-adv-x="1312" d="M14 1384h308l352 -567l350 567h274l-446 -677h309v-125h-358v-209h358v-125h-358v-248h-295v248h-358v125h358v209h-358v125h307z" />
<glyph unicode="&#xa6;" horiz-adv-x="675" d="M236 -389v840h204v-840h-204zM236 799v839h204v-839h-204z" />
<glyph unicode="&#xa7;" horiz-adv-x="1359" d="M139 551q0 78 28 137.5t77 106.5q-41 41 -66.5 95t-25.5 130q0 100 45 175t123.5 124t187 72.5t235.5 23.5q51 0 107.5 -5t111 -13t103.5 -21.5t86 -27.5v-226q-80 37 -187.5 58.5t-218.5 21.5q-135 0 -217 -37t-82 -129q0 -70 58.5 -104.5t145.5 -58t188.5 -44 t188.5 -60.5t145.5 -110.5t58.5 -191.5q0 -76 -25.5 -137.5t-72.5 -110.5q84 -80 84 -219q0 -96 -41 -173t-117 -132t-184.5 -85t-245.5 -30q-262 0 -457 88v238q86 -47 203 -80t252 -33q131 0 214 43t83 135q0 76 -58.5 116t-145.5 63.5t-188.5 44t-188.5 59.5 t-145.5 107.5t-58.5 189.5zM389 569q0 -45 24.5 -73.5t66.5 -49t97.5 -35t117 -26.5t124 -27.5t119.5 -35.5q29 50 29 116q0 70 -51.5 108t-130 61.5t-173 41t-178.5 47.5q-20 -25 -32.5 -55.5t-12.5 -71.5z" />
<glyph unicode="&#xa8;" horiz-adv-x="1228" d="M274 1188v227h244v-227h-244zM711 1188v227h241v-227h-241z" />
<glyph unicode="&#xa9;" horiz-adv-x="1976" d="M145 690q0 156 62.5 289t174.5 229.5t266.5 151.5t338.5 55t339 -55t266.5 -151.5t174 -229.5t62.5 -289t-62.5 -288t-174 -228t-266.5 -150.5t-339 -54.5t-338.5 54.5t-266.5 150.5t-174.5 228.5t-62.5 287.5zM276 690q0 -133 53.5 -243.5t147.5 -191.5t224 -126 t286 -45t286 45t224 126t147.5 191.5t53.5 243.5q0 131 -53.5 244t-147.5 193.5t-224 126.5t-286 46t-286 -46t-224 -126.5t-147.5 -193.5t-53.5 -244zM547 692q0 106 41 184t110.5 128.5t158.5 75t187 24.5q72 0 144 -11.5t131 -37.5v-178q-47 27 -113.5 41t-140.5 14 q-139 0 -211 -60.5t-72 -179.5q0 -111 72 -173t213 -62q145 0 268 73v-184q-61 -33 -128.5 -49t-147.5 -16q-121 0 -216 28.5t-161 82.5t-100.5 130t-34.5 170z" />
<glyph unicode="&#xaa;" horiz-adv-x="1030" d="M121 1085q0 82 30.5 144.5t86 103.5t131 61.5t166.5 20.5q86 0 157.5 -12t147.5 -35v-582h-187l-4 48q-39 -27 -85 -44.5t-120 -17.5q-63 0 -121.5 19.5t-103.5 57.5t-71.5 97.5t-26.5 138.5zM344 1092q0 -88 42 -124t108 -36q33 0 66.5 12t60.5 35v272q-23 4 -45.5 6.5 t-45.5 2.5q-78 0 -132 -37t-54 -131z" />
<glyph unicode="&#xab;" horiz-adv-x="1327" d="M66 508l368 407h244l-332 -407l332 -408h-244zM650 508l368 407h244l-332 -407l332 -408h-244z" />
<glyph unicode="&#xac;" d="M135 768v195h1122v-652h-215v457h-907z" />
<glyph unicode="&#xad;" horiz-adv-x="966" d="M170 473v211h627v-211h-627z" />
<glyph unicode="&#xae;" horiz-adv-x="1310" d="M150 973q0 94 36.5 176t104 140.5t160 92t202.5 33.5q111 0 203 -33.5t159.5 -92t104.5 -140.5t37 -176q0 -96 -37 -177t-104.5 -139.5t-159.5 -92.5t-203 -34t-203 34t-159.5 92.5t-104 139.5t-36.5 177zM250 973q0 -80 29.5 -145.5t83 -112.5t127 -73t163.5 -26 q88 0 163 26t128 73t83 112.5t30 145.5t-30 145.5t-83 112.5t-128 72.5t-163 25.5q-90 0 -163.5 -25.5t-127 -72.5t-83 -112.5t-29.5 -145.5zM442 760v442h232q106 0 168.5 -36t62.5 -101q0 -94 -121 -123l142 -182h-172l-113 160h-43v-160h-156zM598 1010h68q76 0 75 53 q0 53 -75 53h-68v-106z" />
<glyph unicode="&#xaf;" horiz-adv-x="1228" d="M291 1217v165h647v-165h-647z" />
<glyph unicode="&#xb0;" horiz-adv-x="788" d="M109 1141q0 59 22.5 109t61 87t90 57.5t110.5 20.5t111.5 -20.5t91.5 -57.5t61.5 -87t22.5 -109t-22.5 -109.5t-61.5 -86.5t-91 -56.5t-112 -20.5q-59 0 -110.5 20.5t-90 56.5t-61 86t-22.5 110zM240 1141q0 -66 44 -110t109 -44q66 0 111 44t45 110t-45 110.5t-111 44.5 t-109.5 -45t-43.5 -110z" />
<glyph unicode="&#xb1;" d="M135 0v193h1122v-193h-1122zM135 627v194h457v353h205v-353h460v-194h-460v-351h-205v351h-457z" />
<glyph unicode="&#xb2;" horiz-adv-x="968" d="M131 541v137l295 256q61 53 101 97t40 102q0 57 -44 85.5t-122 28.5q-59 0 -125.5 -16.5t-117.5 -44.5v168q53 27 130 41t152 14q74 0 137.5 -16.5t111.5 -48t76 -81t28 -114.5q0 -102 -54.5 -172t-130.5 -127l-186 -143h383v-166h-674z" />
<glyph unicode="&#xb3;" horiz-adv-x="960" d="M154 563v170q55 -29 120.5 -47t137.5 -18q90 0 140 30.5t50 89.5q0 37 -16.5 60.5t-44 37t-62.5 18.5t-69 5q-25 0 -48.5 -2t-44.5 -6v119l263 213h-422v151h655v-137l-264 -215q53 -2 103 -17.5t88 -45t60.5 -74.5t22.5 -107q0 -66 -27.5 -118t-77.5 -88.5t-121 -56 t-155 -19.5q-80 0 -153.5 14.5t-134.5 42.5z" />
<glyph unicode="&#xb4;" horiz-adv-x="1228" d="M391 1145l184 309h304l-281 -309h-207z" />
<glyph unicode="&#xb5;" horiz-adv-x="1380" d="M193 -389v1362h272v-512q0 -61 8 -112.5t31.5 -88.5t62.5 -56.5t101 -19.5q72 0 137 29t113 70v690h270v-973h-223l-21 100q-43 -57 -118.5 -94t-166.5 -37q-59 0 -109 17.5t-85 52.5v-428h-272z" />
<glyph unicode="&#xb6;" horiz-adv-x="1716" d="M115 938q0 106 41 189t117.5 140.5t186 87t247.5 29.5h340v-1773h-203v878h-137q-137 0 -247 30t-186.5 87.5t-117.5 140t-41 191.5zM1270 -389v1773h200v-1773h-200z" />
<glyph unicode="&#xb7;" horiz-adv-x="684" d="M194 453v250h293v-250h-293z" />
<glyph unicode="&#xb8;" horiz-adv-x="1228" d="M406 -293q23 -10 62.5 -19.5t74.5 -9.5q41 0 69.5 12.5t28.5 47.5q0 37 -30.5 48t-73.5 11h-76l76 203h159l-32 -104q88 -12 136 -53.5t48 -125.5q0 -78 -71.5 -126t-211.5 -48q-37 0 -83 6.5t-76 20.5v137z" />
<glyph unicode="&#xb9;" horiz-adv-x="782" d="M106 1229v155h449v-843h-211v688h-238z" />
<glyph unicode="&#xba;" horiz-adv-x="997" d="M115 1094q0 76 28.5 135t78.5 101t121 63.5t157 21.5t156.5 -21.5t120.5 -63.5t79 -101t29 -135t-29 -135.5t-79 -101.5t-120.5 -63.5t-156.5 -21.5t-157 21.5t-121 63.5t-78.5 101.5t-28.5 135.5zM334 1094q0 -82 44 -125t122 -43t122 43t44 125t-44 125t-122 43 t-122 -43t-44 -125z" />
<glyph unicode="&#xbb;" horiz-adv-x="1329" d="M65 100h244l368 408l-368 407h-244l332 -407zM651 100h244l368 408l-368 407h-244l332 -407z" />
<glyph unicode="&#xbc;" horiz-adv-x="2007" d="M106 1229v155h449v-843h-211v688h-238zM367 0l893 1384h210l-892 -1384h-211zM1077 195v143l439 522h237v-512h117v-153h-117v-195h-203v195h-473zM1284 348h266v318z" />
<glyph unicode="&#xbd;" horiz-adv-x="2060" d="M106 1229v155h449v-843h-211v688h-238zM367 0l893 1384h211l-893 -1384h-211zM1221 2v137l295 256q61 53 101 97t40 102q0 57 -44 85.5t-122 28.5q-59 0 -125.5 -16.5t-117.5 -44.5v168q53 27 130 41t152 14q74 0 137.5 -16.5t111.5 -48t76 -81t28 -114.5 q0 -102 -54.5 -172t-130.5 -127l-186 -143h383v-166h-674z" />
<glyph unicode="&#xbe;" horiz-adv-x="2179" d="M154 563v170q55 -29 120.5 -47t137.5 -18q90 0 140 30.5t50 89.5q0 37 -16.5 60.5t-44 37t-62.5 18.5t-69 5q-25 0 -48.5 -2t-44.5 -6v119l263 213h-422v151h655v-137l-264 -215q53 -2 103 -17.5t88 -45t60.5 -74.5t22.5 -107q0 -66 -27.5 -118t-77.5 -88.5t-121 -56 t-155 -19.5q-80 0 -153.5 14.5t-134.5 42.5zM573 0l893 1384h211l-893 -1384h-211zM1247 195v143l439 522h237v-512h117v-153h-117v-195h-203v195h-473zM1454 348h266v318z" />
<glyph unicode="&#xbf;" horiz-adv-x="843" d="M4 -68q0 76 24.5 132.5t60.5 99.5t79 76.5t79 67.5t60.5 71t24.5 84v96h264v-121q0 -74 -22.5 -126t-55.5 -92t-71.5 -70.5t-71.5 -60.5t-55.5 -64.5t-22.5 -79.5q0 -43 18.5 -72t49 -46t70.5 -24.5t83 -7.5q74 0 150.5 19.5t124.5 42.5v-224q-53 -23 -135.5 -38 t-180.5 -15q-92 0 -177 19.5t-151.5 61.5t-105.5 108.5t-39 162.5zM317 725v248h293v-248h-293z" />
<glyph unicode="&#xc0;" horiz-adv-x="1546" d="M-14 0l653 1384h270l652 -1384h-322l-133 289h-703l-133 -289h-284zM391 1833h304l184 -309h-207zM498 496h514l-256 571z" />
<glyph unicode="&#xc1;" horiz-adv-x="1546" d="M-14 0l653 1384h270l652 -1384h-322l-133 289h-703l-133 -289h-284zM498 496h514l-256 571zM672 1524l184 309h304l-281 -309h-207z" />
<glyph unicode="&#xc2;" horiz-adv-x="1546" d="M-14 0l653 1384h270l652 -1384h-322l-133 289h-703l-133 -289h-284zM398 1524l235 309h279l235 -309h-223l-152 168l-151 -168h-223zM498 496h514l-256 571z" />
<glyph unicode="&#xc3;" horiz-adv-x="1546" d="M-14 0l653 1384h270l652 -1384h-322l-133 289h-703l-133 -289h-284zM373 1538q0 55 12.5 107.5t41 91.5t73.5 62.5t113 23.5q53 0 97 -17.5t83 -39t72.5 -39t64.5 -17.5q39 0 52.5 32t13.5 77h178q0 -55 -12.5 -107.5t-40 -91.5t-72.5 -62.5t-113 -23.5q-53 0 -97 17.5 t-81 39t-70.5 39t-68.5 17.5q-41 0 -53.5 -31t-12.5 -78h-180zM498 496h514l-256 571z" />
<glyph unicode="&#xc4;" horiz-adv-x="1546" d="M-14 0l653 1384h270l652 -1384h-322l-133 289h-703l-133 -289h-284zM434 1565v227h244v-227h-244zM498 496h514l-256 571zM871 1565v227h241v-227h-241z" />
<glyph unicode="&#xc5;" horiz-adv-x="1546" d="M-14 0l653 1384h270l652 -1384h-322l-133 289h-703l-133 -289h-284zM498 496h514l-256 571zM506 1681q0 92 77 138.5t189 46.5q113 0 190 -46.5t77 -138.5q0 -96 -77 -142t-190 -46t-189.5 46t-76.5 142zM660 1679q0 -41 30.5 -63.5t81.5 -22.5t82 22.5t31 63.5 t-30.5 63.5t-82.5 22.5q-51 0 -81.5 -22.5t-30.5 -63.5z" />
<glyph unicode="&#xc6;" horiz-adv-x="2250" d="M-80 0l954 1384h1192v-213h-739v-360h666v-211h-666v-246q0 -72 36 -107.5t124 -35.5h618v-211h-667q-195 0 -290 72.5t-112 216.5h-602l-198 -289h-316zM571 496h461v675z" />
<glyph unicode="&#xc7;" horiz-adv-x="1533" d="M123 692q0 158 56.5 291t163 229.5t262 149.5t351.5 53q133 0 249 -19.5t188 -52.5v-219q-72 35 -180.5 56.5t-233.5 21.5t-226.5 -34.5t-173 -100.5t-110.5 -160t-39 -215t39 -215t110.5 -159.5t173 -100.5t226.5 -35q115 0 224.5 23.5t201.5 68.5v-219 q-86 -41 -193.5 -63.5t-253.5 -22.5q-16 0 -31.5 1t-31.5 1l-23 -75q88 -12 136.5 -53.5t48.5 -125.5q0 -78 -72 -126t-211 -48q-37 0 -83 6.5t-77 20.5v137q23 -10 63 -19.5t75 -9.5q41 0 69.5 12.5t28.5 47.5q0 37 -31 48t-74 11h-75l71 191q-147 27 -263 89t-194.5 154.5 t-119.5 209t-41 251.5z" />
<glyph unicode="&#xc8;" horiz-adv-x="1437" d="M225 354v1030h1035v-213h-740v-360h666v-211h-666v-246q0 -72 36 -107.5t124 -35.5h612v-211h-661q-215 0 -310.5 90t-95.5 264zM395 1833h304l184 -309h-207z" />
<glyph unicode="&#xc9;" horiz-adv-x="1437" d="M225 354v1030h1035v-213h-740v-360h666v-211h-666v-246q0 -72 36 -107.5t124 -35.5h612v-211h-661q-215 0 -310.5 90t-95.5 264zM616 1524l184 309h304l-281 -309h-207z" />
<glyph unicode="&#xca;" horiz-adv-x="1437" d="M225 354v1030h1035v-213h-740v-360h666v-211h-666v-246q0 -72 36 -107.5t124 -35.5h612v-211h-661q-215 0 -310.5 90t-95.5 264zM367 1524l235 309h279l235 -309h-223l-152 168l-151 -168h-223z" />
<glyph unicode="&#xcb;" horiz-adv-x="1437" d="M225 354v1030h1035v-213h-740v-360h666v-211h-666v-246q0 -72 36 -107.5t124 -35.5h612v-211h-661q-215 0 -310.5 90t-95.5 264zM403 1565v227h244v-227h-244zM840 1565v227h241v-227h-241z" />
<glyph unicode="&#xcc;" horiz-adv-x="786" d="M18 1833h304l184 -309h-207zM246 0v1384h295v-1384h-295z" />
<glyph unicode="&#xcd;" horiz-adv-x="786" d="M246 0v1384h295v-1384h-295zM291 1524l184 309h304l-281 -309h-207z" />
<glyph unicode="&#xce;" horiz-adv-x="786" d="M23 1524l235 309h279l235 -309h-223l-152 168l-151 -168h-223zM246 0v1384h295v-1384h-295z" />
<glyph unicode="&#xcf;" horiz-adv-x="786" d="M59 1567v227h244v-227h-244zM246 0v1384h295v-1384h-295zM496 1567v227h241v-227h-241z" />
<glyph unicode="&#xd0;" horiz-adv-x="1798" d="M53 614v199h193v571h557q201 0 361.5 -45t272 -132t171 -217t59.5 -298q0 -170 -59.5 -299t-171 -217t-272 -132t-361.5 -44h-557v614h-193zM541 211h250q131 0 236.5 27.5t179 86t113.5 149.5t40 218t-40 217t-113.5 148.5t-179 86t-236.5 27.5h-250v-358h411v-199h-411 v-403z" />
<glyph unicode="&#xd1;" horiz-adv-x="1878" d="M246 0v1384h256l846 -972v972h284v-1384h-254l-848 971v-971h-284zM537 1538q0 55 12.5 107.5t41 91.5t73.5 62.5t113 23.5q53 0 97 -17.5t83 -39t72.5 -39t64.5 -17.5q39 0 52.5 32t13.5 77h178q0 -55 -12.5 -107.5t-40 -91.5t-72.5 -62.5t-113 -23.5q-53 0 -97 17.5 t-81 39t-70.5 39t-68.5 17.5q-41 0 -53.5 -31t-12.5 -78h-180z" />
<glyph unicode="&#xd2;" horiz-adv-x="1953" d="M123 692q0 168 61.5 302t174 227.5t270.5 143.5t348 50t348 -50t270.5 -143.5t174 -227.5t61.5 -302t-61.5 -302t-174 -227t-270.5 -143.5t-348 -50.5t-348 50.5t-270.5 143.5t-174 227t-61.5 302zM430 692q0 -115 37 -209t106.5 -160.5t171 -103.5t232.5 -37t232.5 37 t171 103.5t106.5 161t37 208.5q0 115 -37 209t-106.5 160.5t-171 103.5t-232.5 37t-232.5 -37t-171 -103.5t-106.5 -160.5t-37 -209zM610 1833h304l184 -309h-207z" />
<glyph unicode="&#xd3;" horiz-adv-x="1953" d="M123 692q0 168 61.5 302t174 227.5t270.5 143.5t348 50t348 -50t270.5 -143.5t174 -227.5t61.5 -302t-61.5 -302t-174 -227t-270.5 -143.5t-348 -50.5t-348 50.5t-270.5 143.5t-174 227t-61.5 302zM430 692q0 -115 37 -209t106.5 -160.5t171 -103.5t232.5 -37t232.5 37 t171 103.5t106.5 161t37 208.5q0 115 -37 209t-106.5 160.5t-171 103.5t-232.5 37t-232.5 -37t-171 -103.5t-106.5 -160.5t-37 -209zM860 1524l184 309h304l-281 -309h-207z" />
<glyph unicode="&#xd4;" horiz-adv-x="1953" d="M123 692q0 168 61.5 302t174 227.5t270.5 143.5t348 50t348 -50t270.5 -143.5t174 -227.5t61.5 -302t-61.5 -302t-174 -227t-270.5 -143.5t-348 -50.5t-348 50.5t-270.5 143.5t-174 227t-61.5 302zM430 692q0 -115 37 -209t106.5 -160.5t171 -103.5t232.5 -37t232.5 37 t171 103.5t106.5 161t37 208.5q0 115 -37 209t-106.5 160.5t-171 103.5t-232.5 37t-232.5 -37t-171 -103.5t-106.5 -160.5t-37 -209zM602 1524l235 309h279l235 -309h-223l-152 168l-151 -168h-223z" />
<glyph unicode="&#xd5;" horiz-adv-x="1953" d="M123 692q0 168 61.5 302t174 227.5t270.5 143.5t348 50t348 -50t270.5 -143.5t174 -227.5t61.5 -302t-61.5 -302t-174 -227t-270.5 -143.5t-348 -50.5t-348 50.5t-270.5 143.5t-174 227t-61.5 302zM430 692q0 -115 37 -209t106.5 -160.5t171 -103.5t232.5 -37t232.5 37 t171 103.5t106.5 161t37 208.5q0 115 -37 209t-106.5 160.5t-171 103.5t-232.5 37t-232.5 -37t-171 -103.5t-106.5 -160.5t-37 -209zM575 1538q0 55 12.5 107.5t41 91.5t73.5 62.5t113 23.5q53 0 97 -17.5t83 -39t72.5 -39t64.5 -17.5q39 0 52.5 32t13.5 77h178 q0 -55 -12.5 -107.5t-40 -91.5t-72.5 -62.5t-113 -23.5q-53 0 -97 17.5t-81 39t-70.5 39t-68.5 17.5q-41 0 -53.5 -31t-12.5 -78h-180z" />
<glyph unicode="&#xd6;" horiz-adv-x="1953" d="M123 692q0 168 61.5 302t174 227.5t270.5 143.5t348 50t348 -50t270.5 -143.5t174 -227.5t61.5 -302t-61.5 -302t-174 -227t-270.5 -143.5t-348 -50.5t-348 50.5t-270.5 143.5t-174 227t-61.5 302zM430 692q0 -115 37 -209t106.5 -160.5t171 -103.5t232.5 -37t232.5 37 t171 103.5t106.5 161t37 208.5q0 115 -37 209t-106.5 160.5t-171 103.5t-232.5 37t-232.5 -37t-171 -103.5t-106.5 -160.5t-37 -209zM639 1565v227h244v-227h-244zM1076 1565v227h241v-227h-241z" />
<glyph unicode="&#xd7;" d="M199 281l358 358l-358 360l137 138l360 -359l359 359l137 -138l-358 -360l358 -358l-137 -138l-359 359l-360 -359z" />
<glyph unicode="&#xd8;" horiz-adv-x="1953" d="M123 692q0 168 61.5 302t174 227.5t270 143.5t348.5 50q264 0 463 -94l164 182l110 -100l-145 -160q125 -94 193.5 -233.5t68.5 -317.5q0 -168 -61.5 -302t-174 -227t-270.5 -143.5t-348 -50.5q-135 0 -254 24.5t-217 72.5l-156 -172l-110 100l139 153 q-123 94 -189.5 231.5t-66.5 313.5zM430 692q0 -217 125 -352l721 797q-61 31 -136 48t-163 17q-131 0 -232.5 -37t-171 -103.5t-106.5 -160.5t-37 -209zM672 250q61 -33 138 -50.5t167 -17.5q131 0 232.5 37t171 103.5t106.5 160.5t37 209q0 223 -131 359z" />
<glyph unicode="&#xd9;" horiz-adv-x="1705" d="M205 498v886h295v-886q0 -84 26.5 -143.5t74.5 -97.5t112.5 -56.5t140.5 -18.5t141.5 18.5t113.5 56.5t75.5 97.5t27.5 143.5v886h289v-886q0 -131 -49 -229.5t-136 -165t-206 -100.5t-256 -34q-139 0 -257 34t-206 100.5t-137 165t-49 229.5zM481 1833h304l184 -309 h-207z" />
<glyph unicode="&#xda;" horiz-adv-x="1705" d="M205 498v886h295v-886q0 -84 26.5 -143.5t74.5 -97.5t112.5 -56.5t140.5 -18.5t141.5 18.5t113.5 56.5t75.5 97.5t27.5 143.5v886h289v-886q0 -131 -49 -229.5t-136 -165t-206 -100.5t-256 -34q-139 0 -257 34t-206 100.5t-137 165t-49 229.5zM739 1524l184 309h304 l-281 -309h-207z" />
<glyph unicode="&#xdb;" horiz-adv-x="1705" d="M205 498v886h295v-886q0 -84 26.5 -143.5t74.5 -97.5t112.5 -56.5t140.5 -18.5t141.5 18.5t113.5 56.5t75.5 97.5t27.5 143.5v886h289v-886q0 -131 -49 -229.5t-136 -165t-206 -100.5t-256 -34q-139 0 -257 34t-206 100.5t-137 165t-49 229.5zM480 1524l235 309h279 l235 -309h-223l-152 168l-151 -168h-223z" />
<glyph unicode="&#xdc;" horiz-adv-x="1705" d="M205 498v886h295v-886q0 -84 26.5 -143.5t74.5 -97.5t112.5 -56.5t140.5 -18.5t141.5 18.5t113.5 56.5t75.5 97.5t27.5 143.5v886h289v-886q0 -131 -49 -229.5t-136 -165t-206 -100.5t-256 -34q-139 0 -257 34t-206 100.5t-137 165t-49 229.5zM505 1565v227h244v-227 h-244zM942 1565v227h241v-227h-241z" />
<glyph unicode="&#xdd;" horiz-adv-x="1466" d="M0 1384h328l420 -602l419 602h299l-587 -833v-551h-295v551zM624 1524l184 309h304l-281 -309h-207z" />
<glyph unicode="&#xde;" horiz-adv-x="1576" d="M246 0v1384h295v-241h256q152 0 273.5 -29t206.5 -86t130 -141t45 -195q0 -113 -46 -196.5t-131 -140t-207 -85t-271 -28.5h-256v-242h-295zM541 455h256q74 0 138 12t111.5 41t74 74t26.5 110q0 66 -26.5 111t-74 73.5t-112 41t-137.5 12.5h-256v-475z" />
<glyph unicode="&#xdf;" d="M188 0v1083q0 106 44 182t116 125.5t163 72t183 22.5q102 0 189.5 -24.5t151 -68.5t99 -108.5t35.5 -144.5t-29.5 -137.5t-64.5 -100.5t-64.5 -78t-29.5 -71q0 -29 25.5 -54.5t64.5 -53.5t84 -60.5t84 -73.5t64.5 -94.5t25.5 -122.5q0 -86 -33.5 -147.5t-90 -100.5 t-131.5 -57.5t-156 -18.5q-78 0 -148 11.5t-129 33.5v211q59 -23 121.5 -38t132.5 -15t117 25.5t47 85.5q0 43 -24.5 74.5t-61.5 59t-80 55.5t-80 62.5t-61.5 79.5t-24.5 109q0 63 28.5 110.5t62.5 89.5t62.5 85t28.5 100q0 80 -60.5 128t-158.5 48q-43 0 -84 -11t-72.5 -36 t-52 -61.5t-20.5 -85.5v-1090h-273z" />
<glyph unicode="&#xe0;" horiz-adv-x="1363" d="M102 473q0 131 46.5 230.5t129 166t195.5 100.5t248 34q129 0 234.5 -19.5t215.5 -54.5v-930h-219l-20 96q-70 -59 -146.5 -93t-187.5 -34q-96 0 -185 30t-158 92.5t-111 157.5t-42 224zM317 1454h304l184 -309h-207zM379 483q0 -80 21.5 -137t59.5 -93t89 -53.5 t110 -17.5q68 0 130.5 22.5t109.5 67.5v504q-80 25 -172 25q-68 0 -131.5 -16.5t-111.5 -54.5t-76.5 -98.5t-28.5 -148.5z" />
<glyph unicode="&#xe1;" horiz-adv-x="1363" d="M102 473q0 131 46.5 230.5t129 166t195.5 100.5t248 34q129 0 234.5 -19.5t215.5 -54.5v-930h-219l-20 96q-70 -59 -146.5 -93t-187.5 -34q-96 0 -185 30t-158 92.5t-111 157.5t-42 224zM379 483q0 -80 21.5 -137t59.5 -93t89 -53.5t110 -17.5q68 0 130.5 22.5 t109.5 67.5v504q-80 25 -172 25q-68 0 -131.5 -16.5t-111.5 -54.5t-76.5 -98.5t-28.5 -148.5zM538 1145l184 309h304l-281 -309h-207z" />
<glyph unicode="&#xe2;" horiz-adv-x="1363" d="M102 473q0 131 46.5 230.5t129 166t195.5 100.5t248 34q129 0 234.5 -19.5t215.5 -54.5v-930h-219l-20 96q-70 -59 -146.5 -93t-187.5 -34q-96 0 -185 30t-158 92.5t-111 157.5t-42 224zM283 1145l235 309h279l235 -309h-223l-152 168l-151 -168h-223zM379 483 q0 -80 21.5 -137t59.5 -93t89 -53.5t110 -17.5q68 0 130.5 22.5t109.5 67.5v504q-80 25 -172 25q-68 0 -131.5 -16.5t-111.5 -54.5t-76.5 -98.5t-28.5 -148.5z" />
<glyph unicode="&#xe3;" horiz-adv-x="1363" d="M102 473q0 131 46.5 230.5t129 166t195.5 100.5t248 34q129 0 234.5 -19.5t215.5 -54.5v-930h-219l-20 96q-70 -59 -146.5 -93t-187.5 -34q-96 0 -185 30t-158 92.5t-111 157.5t-42 224zM256 1159q0 55 12.5 107.5t41 91.5t73.5 62.5t113 23.5q53 0 97 -17.5t83 -39 t72.5 -39t64.5 -17.5q39 0 52.5 32t13.5 77h178q0 -55 -12.5 -107.5t-40 -91.5t-72.5 -62.5t-113 -23.5q-53 0 -97 17.5t-81 39t-70.5 39t-68.5 17.5q-41 0 -53.5 -31t-12.5 -78h-180zM379 483q0 -80 21.5 -137t59.5 -93t89 -53.5t110 -17.5q68 0 130.5 22.5t109.5 67.5v504 q-80 25 -172 25q-68 0 -131.5 -16.5t-111.5 -54.5t-76.5 -98.5t-28.5 -148.5z" />
<glyph unicode="&#xe4;" horiz-adv-x="1363" d="M102 473q0 131 46.5 230.5t129 166t195.5 100.5t248 34q129 0 234.5 -19.5t215.5 -54.5v-930h-219l-20 96q-70 -59 -146.5 -93t-187.5 -34q-96 0 -185 30t-158 92.5t-111 157.5t-42 224zM319 1188v227h244v-227h-244zM379 483q0 -80 21.5 -137t59.5 -93t89 -53.5 t110 -17.5q68 0 130.5 22.5t109.5 67.5v504q-80 25 -172 25q-68 0 -131.5 -16.5t-111.5 -54.5t-76.5 -98.5t-28.5 -148.5zM756 1188v227h241v-227h-241z" />
<glyph unicode="&#xe5;" horiz-adv-x="1363" d="M102 473q0 131 46.5 230.5t129 166t195.5 100.5t248 34q129 0 234.5 -19.5t215.5 -54.5v-930h-219l-20 96q-70 -59 -146.5 -93t-187.5 -34q-96 0 -185 30t-158 92.5t-111 157.5t-42 224zM379 483q0 -80 21.5 -137t59.5 -93t89 -53.5t110 -17.5q68 0 130.5 22.5 t109.5 67.5v504q-80 25 -172 25q-68 0 -131.5 -16.5t-111.5 -54.5t-76.5 -98.5t-28.5 -148.5zM391 1300q0 92 77 138.5t189 46.5q113 0 190 -46.5t77 -138.5q0 -96 -77 -142t-190 -46t-189.5 46t-76.5 142zM545 1298q0 -41 30.5 -63.5t81.5 -22.5t82 22.5t31 63.5 t-30.5 63.5t-82.5 22.5q-51 0 -81.5 -22.5t-30.5 -63.5z" />
<glyph unicode="&#xe6;" horiz-adv-x="2058" d="M102 473q0 129 46.5 228.5t128 167t195.5 101.5t247 34q117 0 205 -18.5t168 -53.5l8 -4q135 76 319 76q139 0 240.5 -39t168 -101.5t98.5 -144.5t32 -168v-162h-811q12 -61 47 -103t84 -66.5t110.5 -36t129.5 -11.5q111 0 220 22.5t185 55.5v-205q-39 -18 -91 -32.5 t-110.5 -23.5t-118 -14.5t-114.5 -5.5q-162 0 -284 39t-204 113q-94 -84 -191 -118t-212 -34q-96 0 -185 30t-158 92.5t-111 157.5t-42 224zM379 487q0 -162 79 -233.5t204 -71.5q59 0 120.5 19.5t112.5 66.5q-41 100 -41 221q0 82 19.5 151t54.5 126q-47 16 -96.5 25.5 t-100.5 9.5q-68 0 -131 -15.5t-112.5 -52.5t-79 -97.5t-29.5 -148.5zM1141 575h538q-4 113 -76.5 169.5t-189.5 56.5q-115 0 -185.5 -54.5t-86.5 -171.5z" />
<glyph unicode="&#xe7;" horiz-adv-x="1157" d="M102 487q0 117 42 212.5t120 163t189.5 104.5t251.5 37q186 0 309 -52v-213q-72 33 -139.5 47.5t-147.5 14.5q-162 0 -254 -81t-92 -235q0 -152 92 -232.5t252 -80.5q86 0 159.5 19.5t141.5 54.5v-215q-63 -29 -147 -45.5t-189 -16.5l-22 -73q88 -12 136 -53.5t48 -125.5 q0 -78 -71.5 -126t-211.5 -48q-37 0 -83 6.5t-76 20.5v137q23 -10 62.5 -19.5t74.5 -9.5q41 0 69.5 12.5t28.5 47.5q0 37 -30.5 48t-73.5 11h-76l70 187q-209 41 -321 177t-112 326z" />
<glyph unicode="&#xe8;" horiz-adv-x="1308" d="M104 489q0 121 42 216.5t118 162t179.5 101.5t226.5 35q139 0 240.5 -39t168 -101.5t98 -144.5t31.5 -168v-162h-811q12 -61 47 -103t84.5 -66.5t110.5 -36t129 -11.5q111 0 220.5 22.5t185.5 55.5v-205q-39 -18 -91.5 -32.5t-111 -23.5t-117.5 -14.5t-115 -5.5 q-305 0 -470 137.5t-165 382.5zM303 1454h304l184 -309h-207zM391 575h539q-4 113 -77 169.5t-189 56.5q-115 0 -185.5 -54.5t-87.5 -171.5z" />
<glyph unicode="&#xe9;" horiz-adv-x="1308" d="M104 489q0 121 42 216.5t118 162t179.5 101.5t226.5 35q139 0 240.5 -39t168 -101.5t98 -144.5t31.5 -168v-162h-811q12 -61 47 -103t84.5 -66.5t110.5 -36t129 -11.5q111 0 220.5 22.5t185.5 55.5v-205q-39 -18 -91.5 -32.5t-111 -23.5t-117.5 -14.5t-115 -5.5 q-305 0 -470 137.5t-165 382.5zM391 575h539q-4 113 -77 169.5t-189 56.5q-115 0 -185.5 -54.5t-87.5 -171.5zM547 1145l184 309h304l-281 -309h-207z" />
<glyph unicode="&#xea;" horiz-adv-x="1308" d="M104 489q0 121 42 216.5t118 162t179.5 101.5t226.5 35q139 0 240.5 -39t168 -101.5t98 -144.5t31.5 -168v-162h-811q12 -61 47 -103t84.5 -66.5t110.5 -36t129 -11.5q111 0 220.5 22.5t185.5 55.5v-205q-39 -18 -91.5 -32.5t-111 -23.5t-117.5 -14.5t-115 -5.5 q-305 0 -470 137.5t-165 382.5zM291 1145l235 309h279l235 -309h-223l-152 168l-151 -168h-223zM391 575h539q-4 113 -77 169.5t-189 56.5q-115 0 -185.5 -54.5t-87.5 -171.5z" />
<glyph unicode="&#xeb;" horiz-adv-x="1308" d="M104 489q0 121 42 216.5t118 162t179.5 101.5t226.5 35q139 0 240.5 -39t168 -101.5t98 -144.5t31.5 -168v-162h-811q12 -61 47 -103t84.5 -66.5t110.5 -36t129 -11.5q111 0 220.5 22.5t185.5 55.5v-205q-39 -18 -91.5 -32.5t-111 -23.5t-117.5 -14.5t-115 -5.5 q-305 0 -470 137.5t-165 382.5zM327 1188v227h244v-227h-244zM391 575h539q-4 113 -77 169.5t-189 56.5q-115 0 -185.5 -54.5t-87.5 -171.5zM764 1188v227h241v-227h-241z" />
<glyph unicode="&#xec;" horiz-adv-x="657" d="M-41 1454h304l184 -309h-207zM193 0v973h272v-973h-272z" />
<glyph unicode="&#xed;" horiz-adv-x="657" d="M193 0v973h272v-973h-272zM221 1145l184 309h304l-281 -309h-207z" />
<glyph unicode="&#xee;" horiz-adv-x="657" d="M-45 1145l235 309h279l235 -309h-223l-152 168l-151 -168h-223zM193 0v973h272v-973h-272z" />
<glyph unicode="&#xef;" horiz-adv-x="657" d="M-11 1188v227h244v-227h-244zM193 0v973h272v-973h-272zM426 1188v227h241v-227h-241z" />
<glyph unicode="&#xf0;" horiz-adv-x="1404" d="M102 485q0 117 40 213.5t114 164t176.5 104.5t229.5 37q129 0 219 -35t137 -82q-16 86 -50 166t-71 147l-504 -72v117l451 66q-16 29 -43 70.5t-49 72.5h245q23 -29 38.5 -53.5t35.5 -57.5l260 41v-116l-203 -33q70 -133 122.5 -294t52.5 -331q0 -133 -31 -249.5 t-101.5 -203.5t-186.5 -137.5t-284 -50.5q-133 0 -242.5 36t-188.5 102.5t-123 162t-44 215.5zM381 487q0 -147 89 -231t232 -84t232.5 84t89.5 231t-89 230.5t-233 83.5q-143 0 -232 -83t-89 -231z" />
<glyph unicode="&#xf1;" horiz-adv-x="1406" d="M193 0v973h243l17 -82q70 53 163 83t195 30q88 0 164 -24t133 -71t90 -120.5t33 -174.5v-614h-273v594q0 51 -18 87t-50 58.5t-73 32.5t-84 10q-82 0 -148.5 -21.5t-119.5 -55.5v-705h-272zM317 1159q0 55 12.5 107.5t41 91.5t73.5 62.5t113 23.5q53 0 97 -17.5t83 -39 t72.5 -39t64.5 -17.5q39 0 52.5 32t13.5 77h178q0 -55 -12.5 -107.5t-40 -91.5t-72.5 -62.5t-113 -23.5q-53 0 -97 17.5t-81 39t-70.5 39t-68.5 17.5q-41 0 -53.5 -31t-12.5 -78h-180z" />
<glyph unicode="&#xf2;" horiz-adv-x="1402" d="M102 487q0 121 44 216.5t123 162t189.5 102.5t243.5 36t244 -36t189.5 -102.5t123 -162t44.5 -216.5t-44.5 -217t-123 -162.5t-189 -102.5t-244.5 -36q-133 0 -243.5 36t-189.5 102.5t-123 163t-44 216.5zM327 1454h304l184 -309h-207zM381 487q0 -147 89 -231t232 -84 t232.5 84t89.5 231t-89 230.5t-233 83.5q-143 0 -232 -83t-89 -231z" />
<glyph unicode="&#xf3;" horiz-adv-x="1402" d="M102 487q0 121 44 216.5t123 162t189.5 102.5t243.5 36t244 -36t189.5 -102.5t123 -162t44.5 -216.5t-44.5 -217t-123 -162.5t-189 -102.5t-244.5 -36q-133 0 -243.5 36t-189.5 102.5t-123 163t-44 216.5zM381 487q0 -147 89 -231t232 -84t232.5 84t89.5 231t-89 230.5 t-233 83.5q-143 0 -232 -83t-89 -231zM579 1145l184 309h304l-281 -309h-207z" />
<glyph unicode="&#xf4;" horiz-adv-x="1402" d="M102 487q0 121 44 216.5t123 162t189.5 102.5t243.5 36t244 -36t189.5 -102.5t123 -162t44.5 -216.5t-44.5 -217t-123 -162.5t-189 -102.5t-244.5 -36q-133 0 -243.5 36t-189.5 102.5t-123 163t-44 216.5zM326 1145l235 309h279l235 -309h-223l-152 168l-151 -168h-223z M381 487q0 -147 89 -231t232 -84t232.5 84t89.5 231t-89 230.5t-233 83.5q-143 0 -232 -83t-89 -231z" />
<glyph unicode="&#xf5;" horiz-adv-x="1402" d="M102 487q0 121 44 216.5t123 162t189.5 102.5t243.5 36t244 -36t189.5 -102.5t123 -162t44.5 -216.5t-44.5 -217t-123 -162.5t-189 -102.5t-244.5 -36q-133 0 -243.5 36t-189.5 102.5t-123 163t-44 216.5zM299 1159q0 55 12.5 107.5t41 91.5t73.5 62.5t113 23.5 q53 0 97 -17.5t83 -39t72.5 -39t64.5 -17.5q39 0 52.5 32t13.5 77h178q0 -55 -12.5 -107.5t-40 -91.5t-72.5 -62.5t-113 -23.5q-53 0 -97 17.5t-81 39t-70.5 39t-68.5 17.5q-41 0 -53.5 -31t-12.5 -78h-180zM381 487q0 -147 89 -231t232 -84t232.5 84t89.5 231t-89 230.5 t-233 83.5q-143 0 -232 -83t-89 -231z" />
<glyph unicode="&#xf6;" horiz-adv-x="1402" d="M102 487q0 121 44 216.5t123 162t189.5 102.5t243.5 36t244 -36t189.5 -102.5t123 -162t44.5 -216.5t-44.5 -217t-123 -162.5t-189 -102.5t-244.5 -36q-133 0 -243.5 36t-189.5 102.5t-123 163t-44 216.5zM362 1188v227h244v-227h-244zM381 487q0 -147 89 -231t232 -84 t232.5 84t89.5 231t-89 230.5t-233 83.5q-143 0 -232 -83t-89 -231zM799 1188v227h241v-227h-241z" />
<glyph unicode="&#xf7;" d="M135 541v192h1122v-192h-1122zM553 131v221h272v-221h-272zM553 920v223h272v-223h-272z" />
<glyph unicode="&#xf8;" horiz-adv-x="1402" d="M102 487q0 121 44 216.5t123 162t189.5 102.5t243.5 36q86 0 165 -16.5t145 -45.5l129 150l96 -84l-115 -134q86 -68 132 -165t46 -222q0 -121 -44 -217t-122.5 -162.5t-188 -102.5t-243.5 -36q-182 0 -313 62l-129 -150l-96 84l115 133q-86 66 -131.5 164t-45.5 225z M381 487q0 -119 63 -198l416 479q-72 33 -158 33q-143 0 -232 -83t-89 -231zM541 205q68 -33 161 -33q143 0 231.5 83t88.5 232q0 121 -66 197z" />
<glyph unicode="&#xf9;" horiz-adv-x="1353" d="M166 356v617h272v-600q0 -96 53.5 -143.5t151.5 -47.5q76 0 137.5 28t110.5 75v688h270v-973h-221l-20 96q-66 -53 -149 -90t-198 -37q-195 0 -301 97.5t-106 289.5zM294 1454h304l184 -309h-207z" />
<glyph unicode="&#xfa;" horiz-adv-x="1353" d="M166 356v617h272v-600q0 -96 53.5 -143.5t151.5 -47.5q76 0 137.5 28t110.5 75v688h270v-973h-221l-20 96q-66 -53 -149 -90t-198 -37q-195 0 -301 97.5t-106 289.5zM549 1145l184 309h304l-281 -309h-207z" />
<glyph unicode="&#xfb;" horiz-adv-x="1353" d="M166 356v617h272v-600q0 -96 53.5 -143.5t151.5 -47.5q76 0 137.5 28t110.5 75v688h270v-973h-221l-20 96q-66 -53 -149 -90t-198 -37q-195 0 -301 97.5t-106 289.5zM293 1145l235 309h279l235 -309h-223l-152 168l-151 -168h-223z" />
<glyph unicode="&#xfc;" horiz-adv-x="1353" d="M166 356v617h272v-600q0 -96 53.5 -143.5t151.5 -47.5q76 0 137.5 28t110.5 75v688h270v-973h-221l-20 96q-66 -53 -149 -90t-198 -37q-195 0 -301 97.5t-106 289.5zM327 1188v227h244v-227h-244zM764 1188v227h241v-227h-241z" />
<glyph unicode="&#xfd;" horiz-adv-x="1353" d="M166 381v592h272v-576q0 -98 54.5 -145t150.5 -47q74 0 137.5 27.5t110.5 74.5v666h270v-944q0 -117 -42 -202t-115.5 -140.5t-172 -81t-210.5 -25.5q-129 0 -223.5 19.5t-180.5 54.5v223q63 -37 165.5 -66.5t215.5 -29.5q61 0 114.5 12t93.5 40t62.5 74t22.5 116v73 q-61 -45 -138 -74.5t-180 -29.5q-195 0 -301 97t-106 292zM549 1145l184 309h304l-281 -309h-207z" />
<glyph unicode="&#xfe;" horiz-adv-x="1363" d="M193 -389v1843h272v-551q49 39 120.5 70t182.5 31q92 0 181 -30t159 -93.5t112 -159.5t42 -227q0 -125 -45.5 -222.5t-124 -165t-184 -102.5t-226.5 -35q-104 0 -217 19v-377h-272zM465 199q41 -16 89 -21.5t93 -5.5q68 0 129.5 16.5t107.5 54.5t73.5 97t27.5 145 q0 160 -80 238t-200 78q-68 0 -130.5 -23.5t-109.5 -68.5v-510z" />
<glyph unicode="&#xff;" horiz-adv-x="1353" d="M166 381v592h272v-576q0 -98 54.5 -145t150.5 -47q74 0 137.5 27.5t110.5 74.5v666h270v-944q0 -117 -42 -202t-115.5 -140.5t-172 -81t-210.5 -25.5q-129 0 -223.5 19.5t-180.5 54.5v223q63 -37 165.5 -66.5t215.5 -29.5q61 0 114.5 12t93.5 40t62.5 74t22.5 116v73 q-61 -45 -138 -74.5t-180 -29.5q-195 0 -301 97t-106 292zM327 1188v227h244v-227h-244zM764 1188v227h241v-227h-241z" />
<glyph unicode="&#x152;" horiz-adv-x="2742" d="M123 692q0 168 61.5 302t174 227.5t270 143.5t348.5 50q190 0 331.5 -57.5t229.5 -157.5v184h1026v-213h-739v-360h665v-211h-665v-246q0 -72 35.5 -107.5t126.5 -35.5h610v-211h-660q-166 0 -254 53t-116 158q-86 -115 -235.5 -178.5t-354.5 -63.5q-190 0 -348 50.5 t-270.5 143.5t-174 227t-61.5 302zM430 692q0 -115 37 -209t106.5 -160.5t171 -103.5t232.5 -37t232.5 37t171 103.5t106.5 161t37 208.5q0 117 -37 211t-106.5 160.5t-171 102.5t-232.5 36t-232.5 -36t-171 -102.5t-106.5 -160.5t-37 -211z" />
<glyph unicode="&#x153;" horiz-adv-x="2215" d="M102 487q0 121 44 216.5t123 162t189.5 102.5t243.5 36q154 0 262.5 -47.5t176.5 -133.5q72 88 182.5 134.5t253.5 46.5q139 0 240.5 -39t168 -101.5t98.5 -144.5t32 -168v-162h-811q12 -61 46.5 -103t84 -66.5t111 -36t128.5 -11.5q111 0 220.5 22.5t185.5 55.5v-205 q-39 -18 -91.5 -32.5t-110.5 -23.5t-117.5 -14.5t-114.5 -5.5q-178 0 -303 47t-201 136q-66 -88 -176.5 -135.5t-264.5 -47.5q-133 0 -243.5 36t-189.5 102.5t-123 163t-44 216.5zM381 487q0 -147 89 -231t232 -84t232.5 84t89.5 231t-89 230.5t-233 83.5q-143 0 -232 -83 t-89 -231zM1298 575h539q-4 113 -76.5 169.5t-189.5 56.5q-115 0 -185.5 -54.5t-87.5 -171.5z" />
<glyph unicode="&#x178;" horiz-adv-x="1466" d="M0 1384h328l420 -602l419 602h299l-587 -833v-551h-295v551zM395 1565v227h244v-227h-244zM832 1565v227h241v-227h-241z" />
<glyph unicode="&#x2c6;" horiz-adv-x="1228" d="M240 1145l235 309h279l235 -309h-223l-152 168l-151 -168h-223z" />
<glyph unicode="&#x2dc;" horiz-adv-x="1228" d="M213 1159q0 55 12.5 107.5t41 91.5t73.5 62.5t113 23.5q53 0 97 -17.5t83 -39t72.5 -39t64.5 -17.5q39 0 52.5 32t13.5 77h178q0 -55 -12.5 -107.5t-40 -91.5t-72.5 -62.5t-113 -23.5q-53 0 -97 17.5t-81 39t-70.5 39t-68.5 17.5q-41 0 -53.5 -31t-12.5 -78h-180z" />
<glyph unicode="&#x2000;" horiz-adv-x="933" />
<glyph unicode="&#x2001;" horiz-adv-x="1866" />
<glyph unicode="&#x2002;" horiz-adv-x="933" />
<glyph unicode="&#x2003;" horiz-adv-x="1866" />
<glyph unicode="&#x2004;" horiz-adv-x="622" />
<glyph unicode="&#x2005;" horiz-adv-x="466" />
<glyph unicode="&#x2006;" horiz-adv-x="311" />
<glyph unicode="&#x2007;" horiz-adv-x="311" />
<glyph unicode="&#x2008;" horiz-adv-x="233" />
<glyph unicode="&#x2009;" horiz-adv-x="373" />
<glyph unicode="&#x200a;" horiz-adv-x="103" />
<glyph unicode="&#x2010;" horiz-adv-x="966" d="M170 473v211h627v-211h-627z" />
<glyph unicode="&#x2011;" horiz-adv-x="966" d="M170 473v211h627v-211h-627z" />
<glyph unicode="&#x2012;" horiz-adv-x="966" d="M170 473v211h627v-211h-627z" />
<glyph unicode="&#x2013;" horiz-adv-x="1441" d="M170 473v211h1102v-211h-1102z" />
<glyph unicode="&#x2014;" horiz-adv-x="2498" d="M170 475v209h2159v-209h-2159z" />
<glyph unicode="&#x2018;" horiz-adv-x="641" d="M117 1010q0 127 72.5 234.5t222.5 174.5l112 -127q-166 -109 -166 -274q0 -41 10.5 -84t32.5 -90h-247q-20 41 -28.5 83t-8.5 83z" />
<glyph unicode="&#x2019;" horiz-adv-x="641" d="M117 934q86 53 126 123.5t40 152.5q0 41 -10.5 84t-32.5 90h247q20 -41 28.5 -82.5t8.5 -82.5q0 -127 -72.5 -236t-222.5 -174z" />
<glyph unicode="&#x201a;" horiz-adv-x="641" d="M117 -221q86 53 126 123.5t40 152.5q0 41 -10.5 84t-32.5 90h247q20 -41 28.5 -82.5t8.5 -82.5q0 -127 -72.5 -236t-222.5 -174z" />
<glyph unicode="&#x201c;" horiz-adv-x="1105" d="M117 1007q0 127 72.5 236t222.5 174l112 -125q-86 -53 -126 -123.5t-40 -152.5q0 -41 10.5 -84t32.5 -90h-247q-20 41 -28.5 82.5t-8.5 82.5zM582 1007q0 127 72.5 236t222.5 174l112 -125q-86 -53 -126 -123.5t-40 -152.5q0 -41 10.5 -84t32.5 -90h-247 q-20 41 -28.5 82.5t-8.5 82.5z" />
<glyph unicode="&#x201d;" horiz-adv-x="1105" d="M117 934q86 53 126 123.5t40 152.5q0 41 -10.5 84t-32.5 90h247q20 -41 28.5 -82.5t8.5 -82.5q0 -127 -72.5 -236t-222.5 -174zM582 934q86 53 126 123.5t40 152.5q0 41 -10.5 84t-32.5 90h247q20 -41 28.5 -82.5t8.5 -82.5q0 -127 -72.5 -236t-222.5 -174z" />
<glyph unicode="&#x201e;" horiz-adv-x="1093" d="M117 -221q86 53 126 123.5t40 152.5q0 41 -10.5 84t-32.5 90h247q20 -41 28.5 -82.5t8.5 -82.5q0 -127 -72.5 -236t-222.5 -174zM570 -221q86 53 126 123.5t40 152.5q0 41 -10.5 84t-32.5 90h247q20 -41 28.5 -82.5t8.5 -82.5q0 -127 -72.5 -236t-222.5 -174z" />
<glyph unicode="&#x2022;" horiz-adv-x="874" d="M117 653q0 123 88 198t233 75t233.5 -75t88.5 -198t-88 -197.5t-234 -74.5q-145 0 -233 74.5t-88 197.5z" />
<glyph unicode="&#x2026;" horiz-adv-x="1990" d="M184 0v250h293v-250h-293zM848 0v250h293v-250h-293zM1511 0v250h293v-250h-293z" />
<glyph unicode="&#x202f;" horiz-adv-x="373" />
<glyph unicode="&#x2039;" horiz-adv-x="743" d="M66 508l368 407h244l-332 -407l332 -408h-244z" />
<glyph unicode="&#x203a;" horiz-adv-x="743" d="M65 100h244l368 408l-368 407h-244l332 -407z" />
<glyph unicode="&#x205f;" horiz-adv-x="466" />
<glyph unicode="&#x20ac;" horiz-adv-x="1349" d="M18 475l41 129h150q-2 16 -3 42t-1 56q0 51 6 105h-193l41 123h170q29 133 97.5 225t163 150.5t205 84t225.5 25.5q96 0 175 -12t144 -33v-219q-57 23 -135 37t-160 14q-74 0 -142.5 -14t-123.5 -46t-95 -84t-57 -128h635l-41 -123h-614q-6 -53 -6 -105q0 -31 1 -56 t3 -42h555l-43 -129h-488q14 -74 52 -129t90.5 -92t115 -54.5t129.5 -17.5q92 0 175.5 16.5t158.5 55.5v-225q-66 -29 -149.5 -44.5t-206.5 -15.5q-113 0 -220.5 29t-197.5 90.5t-155.5 157.5t-90.5 229h-211z" />
<glyph unicode="&#x2122;" horiz-adv-x="2013" d="M53 1243v141h705v-141h-246v-426h-213v426h-246zM936 817v567h244l192 -307l191 307h245v-567h-200v342l-146 -233h-180l-147 231v-340h-199z" />
<glyph unicode="&#xe000;" horiz-adv-x="972" d="M0 0v973h973v-973h-973z" />
</font>
</defs>
</svg>
