<?xml version="1.0" standalone="no"?>
<!DOCTYPE svg PUBLIC "-//W3C//DTD SVG 1.1//EN" "http://www.w3.org/Graphics/SVG/1.1/DTD/svg11.dtd" >
<svg xmlns="http://www.w3.org/2000/svg">
<metadata></metadata>
<defs>
<font id="peugeot_expanded_extralightRg" horiz-adv-x="1392" >
<font-face units-per-em="2048" ascent="1638" descent="-410" />
<missing-glyph horiz-adv-x="571" />
<glyph unicode="&#xfb01;" horiz-adv-x="1214" d="M76 922v51h170v141q0 88 28.5 155.5t80 114t121 70t151.5 23.5q123 0 218 -27t148 -57v-60q-63 37 -149 63.5t-221 26.5q-147 0 -234.5 -77.5t-87.5 -231.5v-141h680v-973h-55v922h-625v-922h-55v922h-170z" />
<glyph unicode="&#xfb02;" horiz-adv-x="1277" d="M76 922v51h170v141q0 88 28.5 155.5t80 114t121 70t151.5 23.5q117 0 208 -25t146 -53v-1245q0 -61 35 -93t94 -32q43 0 76 9t67 28v-58q-29 -16 -68.5 -24.5t-74.5 -8.5q-80 0 -132 44t-52 135v1214q-55 23 -128 39t-175 16q-147 0 -234.5 -77.5t-87.5 -231.5v-141h336 v-51h-336v-922h-55v922h-170z" />
<glyph horiz-adv-x="2048" />
<glyph horiz-adv-x="2048" />
<glyph unicode="&#xd;" horiz-adv-x="571" />
<glyph unicode=" "  horiz-adv-x="571" />
<glyph unicode="&#x09;" horiz-adv-x="571" />
<glyph unicode="&#xa0;" horiz-adv-x="571" />
<glyph unicode="!" horiz-adv-x="641" d="M283 0v111h75v-111h-75zM283 1384h73l-8 -1030h-57z" />
<glyph unicode="&#x22;" horiz-adv-x="882" d="M256 1384h59l-4 -471h-51zM567 1384h60l-4 -471h-52z" />
<glyph unicode="#" horiz-adv-x="1347" d="M78 426l8 53h240l94 443h-236l9 51h237l88 411h55l-88 -411h486l88 411h55l-88 -411h244l-10 -53h-242l-96 -441h239l-8 -53h-240l-92 -426h-55l90 426h-483l-92 -426h-56l92 426h-239zM383 479h483l95 443h-484z" />
<glyph unicode="$" horiz-adv-x="1275" d="M147 119v63q90 -53 213 -80.5t238 -27.5q82 0 161 14t141.5 48t101 91.5t38.5 143.5q0 104 -65.5 161.5t-162.5 91t-211 57.5t-211 61.5t-162.5 103t-65.5 182.5q0 84 40 146.5t103.5 103.5t143 62.5t161.5 25.5v225h54v-223q135 -4 229 -27.5t170 -58.5v-59 q-78 39 -178.5 63.5t-245.5 24.5q-78 0 -152.5 -16.5t-133 -50.5t-94.5 -87t-36 -129t38 -125t99.5 -82t141.5 -53t161.5 -40.5t161.5 -45.5t141.5 -64.5t99.5 -99t38 -147.5q0 -86 -35 -149.5t-95.5 -106.5t-140 -66.5t-169.5 -30.5v-243h-54v241q-63 0 -128.5 7.5 t-126 20.5t-114 31.5t-94.5 43.5z" />
<glyph unicode="%" horiz-adv-x="2093" d="M158 977q0 201 91 315.5t259 114.5t259 -114.5t91 -315.5t-91 -315.5t-259 -114.5t-259 114.5t-91 315.5zM215 977q0 -180 72.5 -278.5t220.5 -98.5q147 0 220 98.5t73 278.5t-73 278.5t-220 98.5t-220 -98.5t-73 -278.5zM563 0l903 1384h68l-905 -1384h-66zM1235 408 q0 201 91 315.5t259 114.5t259 -115.5t91 -316.5t-91 -315t-259 -114t-259 115t-91 316zM1292 408q0 -180 73 -278.5t220 -98.5t220 98.5t73 278.5t-72.5 278t-220.5 98q-147 0 -220 -98t-73 -278z" />
<glyph unicode="&#x26;" horiz-adv-x="1564" d="M156 389q0 92 32.5 158.5t85 114t119 76t133.5 40.5q-55 10 -109.5 30.5t-97.5 55.5t-70.5 88.5t-27.5 126.5q0 82 39 143.5t105.5 102.5t154.5 61.5t187 20.5q152 0 258 -26.5t188 -67.5v-60q-82 41 -187.5 69t-258.5 28q-90 0 -167 -17.5t-134.5 -51.5t-89 -84 t-31.5 -118q0 -74 35.5 -125t96 -82.5t141.5 -47t171 -15.5h74v-57h-74q-111 0 -205 -23.5t-161.5 -69t-105.5 -114t-38 -156.5q0 -86 37 -152.5t102.5 -110.5t155.5 -67.5t197 -23.5q129 0 226 41t163.5 112.5t99.5 168t33 208.5h-285v56h608v-56h-258q0 -119 -36.5 -225.5 t-109.5 -187t-183.5 -128t-257.5 -47.5q-133 0 -235.5 31t-174.5 85t-108.5 130t-36.5 166z" />
<glyph unicode="'" horiz-adv-x="571" d="M256 1384h59l-4 -471h-51z" />
<glyph unicode="(" horiz-adv-x="604" d="M174 532q0 152 28.5 281t76 240.5t107.5 210t126 190.5h66q-66 -94 -128.5 -197.5t-110.5 -218t-78 -241.5t-30 -265q0 -139 30 -265t78 -240.5t110.5 -218t128.5 -197.5h-66q-66 92 -126 190.5t-107.5 210t-76 240.5t-28.5 280z" />
<glyph unicode=")" horiz-adv-x="604" d="M26 -389h66q66 92 126 190.5t107.5 210t76 240.5t28.5 280q0 152 -28.5 281t-76 240.5t-107.5 210t-126 190.5h-66q66 -94 128.5 -197.5t110.5 -218t78 -241.5t30 -265q0 -139 -30 -265t-78 -240.5t-110.5 -218t-128.5 -197.5z" />
<glyph unicode="*" horiz-adv-x="856" d="M137 1167l13 52l256 -64l-3 229h50l-2 -229l256 64l12 -52l-258 -53l166 -201l-41 -34l-158 202l-158 -202l-41 34l166 201z" />
<glyph unicode="+" d="M135 616v56h535v428h55v-428h532v-56h-532v-428h-55v428h-535z" />
<glyph unicode="," horiz-adv-x="563" d="M37 -346q100 55 155.5 130t55.5 169q0 63 -27 141h60q14 -39 19 -72.5t5 -68.5q0 -111 -63.5 -197t-175.5 -147z" />
<glyph unicode="-" horiz-adv-x="935" d="M211 578v55h514v-55h-514z" />
<glyph unicode="." horiz-adv-x="563" d="M244 0v111h75v-111h-75z" />
<glyph unicode="/" horiz-adv-x="735" d="M0 0l674 1384h61l-674 -1384h-61z" />
<glyph unicode="0" horiz-adv-x="1439" d="M199 692q0 182 40 316.5t110.5 223.5t165.5 132t206 43t206 -43t165.5 -132t110.5 -223.5t40 -316.5t-40 -316t-110.5 -223.5t-166 -132.5t-205.5 -43q-111 0 -206 43t-165.5 132.5t-110.5 223.5t-40 316zM262 692q0 -154 30 -275.5t88 -206.5t143 -130t198 -45t198 45 t143 130t88 207t30 275q0 154 -30 276t-88 207t-143 130t-198 45t-198 -45t-143 -130t-88 -207t-30 -276z" />
<glyph unicode="1" horiz-adv-x="751" d="M55 1327v57h408v-1384h-64v1327h-344z" />
<glyph unicode="2" horiz-adv-x="1216" d="M131 0v57l504 402q90 72 158.5 135t115.5 128.5t71 135.5t24 154t-31 147.5t-85 105.5t-129 63.5t-163 21.5q-131 0 -228.5 -30t-189.5 -91v67q84 53 183.5 82t234.5 29q102 0 188 -25.5t149.5 -76t98.5 -124t35 -169.5q0 -88 -25.5 -164t-76 -147.5t-122 -140 t-163.5 -140.5l-461 -363h877v-57h-965z" />
<glyph unicode="3" horiz-adv-x="1241" d="M137 57v64q92 -43 200.5 -64.5t209.5 -21.5q219 0 347 96t128 262q0 104 -44 173t-114.5 109t-156.5 56.5t-170 16.5q-37 0 -77 -3.5t-69 -7.5v56l590 534h-829v57h911v-57l-584 -526q14 2 29.5 2h32.5q94 0 190 -18.5t175 -65.5t128 -126t49 -200q0 -96 -37.5 -174 t-108.5 -131t-169 -82t-221 -29q-104 0 -214 21.5t-196 58.5z" />
<glyph unicode="4" horiz-adv-x="1239" d="M74 381v57l800 946h80v-946h217v-57h-217v-381h-63v381h-817zM145 438h746v879z" />
<glyph unicode="5" horiz-adv-x="1249" d="M150 53v64q78 -37 180 -59.5t209 -22.5q92 0 179 20.5t154.5 66.5t107.5 123t40 189q0 100 -41 169t-108.5 110t-154.5 59.5t-179 18.5q-72 0 -156 -12.5t-150 -33.5l-16 21l90 618h729v-57h-676l-71 -508q53 12 117.5 20.5t132.5 8.5q100 0 199.5 -21.5t176 -69.5 t124.5 -127t48 -196q0 -127 -46 -214t-121.5 -141t-174 -78t-202.5 -24q-102 0 -202.5 20.5t-188.5 55.5z" />
<glyph unicode="6" horiz-adv-x="1312" d="M160 639q0 207 50 353.5t136 238.5t198.5 134t237.5 42q92 0 178.5 -14.5t157.5 -42.5v-64q-72 35 -154.5 49.5t-181.5 14.5q-117 0 -218 -38t-177 -121t-120 -212t-46 -309q31 31 77 64.5t106.5 63t132 49t153.5 19.5q111 0 200 -27.5t151.5 -83t97.5 -136t35 -187.5 q0 -100 -36 -183t-100.5 -143.5t-153.5 -94.5t-196 -34q-129 0 -228.5 53.5t-166 143.5t-100 210t-33.5 255zM223 592q2 -92 29 -190.5t82 -180.5t142 -134t210 -52q100 0 178 29.5t132.5 83t83 126t28.5 158.5q0 186 -109.5 280.5t-308.5 94.5q-78 0 -148.5 -19.5t-131 -51 t-108.5 -69.5t-79 -75z" />
<glyph unicode="7" horiz-adv-x="1144" d="M104 1327v57h1002v-49q-139 -133 -265 -278.5t-227.5 -308t-176.5 -348t-113 -400.5h-62q37 217 112 407.5t176 354.5t222 304t248 261h-916z" />
<glyph unicode="8" horiz-adv-x="1402" d="M176 367q0 94 32 158.5t81 106.5t107.5 65.5t111.5 35.5q-61 18 -113.5 46t-90.5 67t-60.5 90t-22.5 119q0 82 38 146.5t102.5 110.5t152.5 70.5t186 24.5t186.5 -24.5t153 -70.5t102.5 -110.5t38 -146.5q0 -68 -22.5 -119t-60.5 -90t-90.5 -66.5t-113.5 -46.5 q53 -12 111.5 -35.5t107.5 -65.5t81 -106.5t32 -158.5q0 -88 -40 -160t-109.5 -123t-166 -79t-209.5 -28t-209 28t-165.5 79t-109.5 123t-40 160zM242 367q0 -80 38.5 -142.5t103.5 -104.5t146.5 -63.5t169.5 -21.5t170 21.5t146.5 63.5t103.5 104.5t39 142.5 q0 94 -39 157.5t-103.5 103.5t-146.5 57t-170 17t-169.5 -17t-146.5 -57t-103.5 -103.5t-38.5 -157.5zM285 1059q0 -74 35.5 -130.5t94 -94t133 -57t152.5 -19.5t153 19.5t133 57t94 94t36 130.5q0 70 -34.5 124t-92 91t-133.5 56.5t-156 19.5t-155.5 -19.5t-133 -56.5 t-92 -91.5t-34.5 -123.5z" />
<glyph unicode="9" horiz-adv-x="1312" d="M139 952q0 100 36 183t100.5 143.5t153.5 94.5t196 34q129 0 228.5 -53.5t166 -143.5t100 -210t33.5 -255q0 -207 -50 -353.5t-136 -238.5t-198.5 -134t-237.5 -42q-92 0 -178.5 14.5t-157.5 42.5v64q72 -35 154.5 -49.5t181.5 -14.5q117 0 218 38t177 121t120 212 t46 309q-31 -31 -77 -64.5t-106.5 -63t-132 -49t-153.5 -19.5q-111 0 -200 27.5t-151.5 83t-97.5 136t-35 187.5zM205 952q0 -186 109.5 -280.5t308.5 -94.5q78 0 148.5 19.5t131 51t108.5 69.5t79 75q-2 92 -29 190.5t-82 180.5t-142 134t-210 52q-100 0 -178 -29.5 t-132.5 -83t-83 -126t-28.5 -158.5z" />
<glyph unicode=":" horiz-adv-x="563" d="M244 0v111h75v-111h-75zM244 862v111h75v-111h-75z" />
<glyph unicode=";" horiz-adv-x="563" d="M37 -346q100 55 155.5 130t55.5 169q0 63 -27 141h60q14 -39 19 -72.5t5 -68.5q0 -111 -63.5 -197t-175.5 -147zM244 862v111h75v-111h-75z" />
<glyph unicode="&#x3c;" d="M135 612v66l1122 444v-63l-1050 -414l1050 -416v-61z" />
<glyph unicode="=" d="M135 416v55h1122v-55h-1122zM135 815v55h1122v-55h-1122z" />
<glyph unicode="&#x3e;" d="M136 168l1122 444v66l-1122 444v-63l1050 -414l-1050 -416v-61z" />
<glyph unicode="?" horiz-adv-x="952" d="M160 1286v57q53 29 131 46.5t155 17.5q74 0 141.5 -16.5t118 -51t80 -88t29.5 -125.5q0 -61 -18.5 -109t-48 -88t-65.5 -75t-71 -70q-45 -45 -79.5 -78.5t-57 -66.5t-35 -67.5t-12.5 -84.5v-133h-59v135q0 53 14 96.5t41 82.5t64.5 76.5t84.5 82.5q35 33 68 67t57.5 69.5 t39 75.5t14.5 85q0 66 -27 110t-71 69.5t-99 36t-113 10.5q-72 0 -149.5 -17.5t-132.5 -46.5zM360 0v111h76v-111h-76z" />
<glyph unicode="@" horiz-adv-x="1884" d="M141 504q0 168 70 294t183.5 209t259 125t296.5 42q133 0 273.5 -33t256 -103.5t189.5 -179t74 -258.5q0 -195 -91 -301t-245 -106q-104 0 -165.5 43t-80.5 108q-43 -59 -112.5 -105t-176.5 -46q-59 0 -111 19t-90 57t-60.5 93.5t-22.5 126.5q0 80 30.5 139.5t82 97.5 t119 56.5t141.5 18.5q125 0 249 -45v-295q0 -117 48.5 -164t160.5 -47q57 0 105.5 21.5t84.5 65.5t56.5 109.5t20.5 153.5q0 137 -70 235.5t-177.5 162t-237.5 93t-251 29.5q-145 0 -280 -36.5t-240.5 -112.5t-169 -192.5t-63.5 -274.5t63.5 -274.5t169 -193.5t240.5 -114 t280 -37q113 0 236 13.5t221 48.5v-56q-100 -35 -223 -47t-234 -12q-152 0 -297 42t-258.5 126t-183.5 210t-70 294zM647 489q0 -111 58.5 -175t168.5 -64q104 0 170 51t107 117v303q-92 29 -188 29q-61 0 -119 -14.5t-102 -45.5t-69.5 -81t-25.5 -120z" />
<glyph unicode="A" horiz-adv-x="1384" d="M0 0l664 1384h61l659 -1384h-67l-207 432h-838l-204 -432h-68zM301 489h782l-391 820z" />
<glyph unicode="B" d="M289 0v1384h362q295 0 428 -97t133 -257q0 -78 -28.5 -134t-74.5 -96t-104.5 -63.5t-115.5 -31.5q72 -10 138.5 -35t116.5 -67t80.5 -101.5t30.5 -134.5q0 -174 -154.5 -270.5t-449.5 -96.5h-362zM352 57h299q264 0 402.5 81t138.5 229q0 147 -138.5 228t-402.5 81h-299 v-619zM352 733h299q260 0 379 78t119 219t-119 219t-379 78h-299v-594z" />
<glyph unicode="C" horiz-adv-x="1525" d="M168 692q0 160 58.5 292t166 226.5t259 145.5t337.5 51q111 0 200 -15.5t175 -48.5v-59q-88 35 -178 50.5t-197 15.5q-172 0 -312 -47.5t-238.5 -133.5t-153 -207.5t-54.5 -269.5q0 -147 54.5 -269t153 -208t238.5 -133t312 -47q115 0 212 20.5t181 57.5v-60 q-84 -35 -180 -55.5t-213 -20.5q-186 0 -337.5 51.5t-259 145.5t-166 226t-58.5 292z" />
<glyph unicode="D" horiz-adv-x="1812" d="M289 0v1384h428q242 0 417 -50t288.5 -142t168 -219t54.5 -281t-54.5 -281.5t-168 -219t-289 -141.5t-416.5 -50h-428zM352 57h365q203 0 362.5 40t271 120t171 199t59.5 276q0 160 -59.5 279t-171 197.5t-271 118.5t-362.5 40h-365v-1270z" />
<glyph unicode="E" horiz-adv-x="1331" d="M268 303v1081h858v-57h-794v-571h739v-58h-739v-395q0 -123 67.5 -184.5t233.5 -61.5h538v-57h-538q-201 0 -283 80t-82 223z" />
<glyph unicode="F" horiz-adv-x="1265" d="M289 0v1384h831v-57h-768v-579h713v-60h-713v-688h-63z" />
<glyph unicode="G" horiz-adv-x="1935" d="M168 692q0 160 58.5 292t166 226.5t259 145.5t337.5 51q174 0 331 -30.5t298 -96.5v-59q-150 70 -302.5 99.5t-326.5 29.5q-172 0 -312 -47.5t-238.5 -133.5t-153 -207.5t-54.5 -269.5q0 -147 54.5 -269t153 -208t238.5 -133t312 -47q217 0 377 44t252 99v457h-637v59 h692v-551q-61 -35 -130.5 -65.5t-151.5 -53t-180.5 -35t-221.5 -12.5q-186 0 -337.5 51.5t-259 145.5t-166 226t-58.5 292z" />
<glyph unicode="H" horiz-adv-x="1871" d="M289 0v1384h63v-630h1168v630h63v-1384h-63v696h-1168v-696h-63z" />
<glyph unicode="I" horiz-adv-x="641" d="M289 0v1384h63v-1384h-63z" />
<glyph unicode="J" horiz-adv-x="837" d="M14 16v60q106 -41 217 -41q57 0 107.5 13t89.5 45t61.5 86t22.5 136v1069h63v-1069q0 -96 -27.5 -160.5t-75.5 -104.5t-110.5 -56.5t-130.5 -16.5q-55 0 -111.5 10.5t-105.5 28.5z" />
<glyph unicode="K" horiz-adv-x="1343" d="M289 0v1384h63v-639l877 639h90l-905 -665l919 -719h-92l-889 690v-690h-63z" />
<glyph unicode="L" horiz-adv-x="1165" d="M268 303v1081h64v-1081q0 -123 67.5 -184.5t233.5 -61.5h477v-57h-477q-201 0 -283 80t-82 223z" />
<glyph unicode="M" horiz-adv-x="2248" d="M289 0v1384h84l751 -1052l752 1052h84v-1384h-64v1307l-739 -1039h-65l-740 1039v-1307h-63z" />
<glyph unicode="N" horiz-adv-x="1863" d="M289 0v1384h80l1142 -1314v1314h64v-1384h-80l-1143 1309v-1309h-63z" />
<glyph unicode="O" horiz-adv-x="1978" d="M168 692q0 160 58.5 292t166 226.5t259 145.5t337.5 51t338 -51t259.5 -145.5t165.5 -226.5t58 -292t-58 -292t-165.5 -226t-259 -145.5t-338.5 -51.5q-186 0 -337.5 51.5t-259 145.5t-166 226t-58.5 292zM231 692q0 -147 54.5 -269t153 -208t238.5 -133t312 -47 t312.5 47t238.5 133t152.5 208t54.5 269t-54.5 269t-152.5 208t-238.5 133.5t-312.5 47.5t-312 -47.5t-238.5 -133.5t-153 -207.5t-54.5 -269.5z" />
<glyph unicode="P" horiz-adv-x="1406" d="M289 0v1384h413q281 0 422.5 -109.5t141.5 -295.5t-141.5 -296t-422.5 -110h-350v-573h-63zM352 631h350q242 0 371 91t129 257t-129 257t-371 91h-350v-696z" />
<glyph unicode="Q" horiz-adv-x="1978" d="M168 692q0 160 58.5 292t166 226.5t259 145.5t337.5 51t338 -51t259.5 -145.5t165.5 -226.5t58 -292q0 -135 -42 -249.5t-119.5 -203.5t-187 -150.5t-247.5 -88.5l291 -301h-84l-280 289q-37 -4 -74 -7.5t-78 -3.5q-186 0 -337.5 51.5t-259 145.5t-166 226t-58.5 292z M231 692q0 -147 54.5 -269t153 -208t238.5 -133t312 -47t312.5 47t238.5 133t152.5 208t54.5 269t-54.5 269t-152.5 208t-238.5 133.5t-312.5 47.5t-312 -47.5t-238.5 -133.5t-153 -207.5t-54.5 -269.5z" />
<glyph unicode="R" horiz-adv-x="1437" d="M289 0v1384h413q281 0 422.5 -109.5t141.5 -295.5q0 -172 -121 -279.5t-363 -124.5l561 -575h-81l-560 573h-350v-573h-63zM352 631h350q242 0 371 91t129 257t-129 257t-371 91h-350v-696z" />
<glyph unicode="S" horiz-adv-x="1345" d="M170 86v66q94 -55 222 -86t249 -31q86 0 170 15.5t150.5 52t107.5 98t41 153.5q0 82 -40 135.5t-104.5 89t-148.5 58t-170 44t-170 46.5t-148.5 66t-104.5 101t-40 153q0 94 43 161.5t114 111.5t161 65.5t184 21.5q152 0 257.5 -25.5t186.5 -66.5v-60q-82 41 -186 68 t-258 27q-82 0 -161 -17.5t-140 -54.5t-99 -94.5t-38 -136.5q0 -80 40 -132.5t104.5 -86t148.5 -56t170 -44t170 -48.5t148.5 -68t104.5 -102t40 -156q0 -100 -44.5 -170.5t-118 -117t-170 -68t-200.5 -21.5q-61 0 -125.5 7.5t-127 21.5t-119 34.5t-99.5 45.5z" />
<glyph unicode="T" horiz-adv-x="1361" d="M55 1327v57h1252v-57h-594v-1327h-64v1327h-594z" />
<glyph unicode="U" horiz-adv-x="1632" d="M248 471v913h63v-913q0 -111 41 -193.5t110.5 -136t162 -80t192.5 -26.5q104 0 196.5 27.5t162 83t109.5 136t40 189.5v913h59v-913q0 -125 -47 -218t-124.5 -154.5t-180 -91.5t-215.5 -30t-215 30t-181 91.5t-126 154.5t-47 218z" />
<glyph unicode="V" horiz-adv-x="1372" d="M4 1384h68l614 -1308l614 1308h68l-649 -1384h-62z" />
<glyph unicode="W" horiz-adv-x="2322" d="M39 1384h59l484 -1306l548 1306h62l549 -1306l483 1306h60l-510 -1384h-60l-553 1307l-553 -1307h-59z" />
<glyph unicode="X" horiz-adv-x="1398" d="M41 0l616 696l-606 688h82l565 -641l568 641h82l-609 -686l619 -698h-84l-576 651l-573 -651h-84z" />
<glyph unicode="Y" horiz-adv-x="1290" d="M0 1384h72l575 -759l570 759h73l-612 -823v-561h-64v561z" />
<glyph unicode="Z" horiz-adv-x="1411" d="M129 0v57l1088 1270h-1065v57h1142v-57l-1087 -1270h1110v-57h-1188z" />
<glyph unicode="[" horiz-adv-x="659" d="M289 -389v1843h319v-55h-262v-1735h262v-53h-319z" />
<glyph unicode="\" horiz-adv-x="735" d="M0 1384l674 -1384h61l-674 1384h-61z" />
<glyph unicode="]" horiz-adv-x="659" d="M51 -336v-53h319v1843h-319v-55h262v-1735h-262z" />
<glyph unicode="^" d="M180 526l492 858h49l491 -858h-65l-451 795l-450 -795h-66z" />
<glyph unicode="_" horiz-adv-x="1435" d="M92 -23h1251v-51h-1251v51z" />
<glyph unicode="`" horiz-adv-x="1228" d="M502 1454h71l205 -309h-55z" />
<glyph unicode="a" horiz-adv-x="1349" d="M133 487q0 129 44 224.5t119 159t176 94t218 30.5q104 0 212 -22.5t216 -69.5v-903h-55v150q-31 -29 -74 -60t-95 -55.5t-115.5 -41t-137.5 -16.5q-104 0 -197.5 33t-162 97.5t-108.5 159.5t-40 220zM190 487q0 -115 37 -200.5t98.5 -142t143.5 -85t172 -28.5 q70 0 132.5 16t115.5 42t97 58.5t77 67.5v651q-92 37 -187.5 56.5t-187.5 19.5q-102 0 -192 -26.5t-158 -82t-108 -141.5t-40 -205z" />
<glyph unicode="b" horiz-adv-x="1345" d="M227 96v1358h56v-602q82 53 188.5 98t239.5 45q111 0 204 -34.5t158.5 -100t102 -160t36.5 -213.5q0 -137 -44 -234t-117.5 -158.5t-170 -89.5t-202.5 -28q-117 0 -233.5 32t-217.5 87zM283 129q78 -41 184 -69.5t213 -28.5q92 0 178 23.5t151.5 77.5t105.5 141t40 214 q0 106 -35 191.5t-94 144t-140 89t-175 30.5q-131 0 -236.5 -46t-191.5 -108v-659z" />
<glyph unicode="c" horiz-adv-x="1165" d="M133 485q0 111 43 205t119 162t181.5 105.5t232.5 37.5q168 0 301 -69v-62q-63 37 -138 57.5t-163 20.5q-115 0 -210.5 -34t-164 -94t-106.5 -144t-38 -185q0 -100 38 -183t106.5 -143.5t164 -94t210.5 -33.5q96 0 171.5 22.5t141.5 65.5v-64q-68 -39 -144.5 -58.5 t-168.5 -19.5q-127 0 -232.5 38t-181.5 105.5t-119 161t-43 203.5z" />
<glyph unicode="d" horiz-adv-x="1349" d="M133 487q0 129 44 224.5t119 159t176 94t218 30.5q90 0 183.5 -17t189.5 -52v528h55v-1454h-55v150q-31 -29 -74 -60t-96 -55.5t-116.5 -41t-137.5 -16.5q-104 0 -196.5 33t-161 97.5t-108.5 159.5t-40 220zM190 487q0 -115 37 -200.5t98.5 -142t143.5 -85t172 -28.5 q70 0 132.5 16t115.5 42t97 58.5t77 67.5v651q-92 37 -187.5 56.5t-187.5 19.5q-102 0 -192 -26.5t-158 -82t-108 -141.5t-40 -205z" />
<glyph unicode="e" horiz-adv-x="1282" d="M133 485q0 111 38 205t106.5 162t163 105.5t206.5 37.5q106 0 196.5 -33.5t158 -95t108.5 -146.5t49 -185v-50h-969q2 -123 43 -209t108 -141t154 -79.5t183 -24.5q113 0 226.5 26.5t211.5 85.5v-59q-96 -57 -209.5 -82t-228.5 -25q-106 0 -204.5 29t-174.5 90.5 t-121 157.5t-45 231zM193 537h909q-10 88 -46 162.5t-95.5 129t-139.5 84t-174 29.5q-96 0 -177 -29.5t-139.5 -84t-94 -129t-43.5 -162.5z" />
<glyph unicode="f" horiz-adv-x="694" d="M76 922v51h170v223q0 70 22.5 122t62.5 88t92 53.5t112 17.5q39 0 79.5 -6.5t81.5 -22.5v-55q-39 16 -81 23t-80 7q-47 0 -89.5 -12t-75 -40t-51 -71t-18.5 -102v-225h358v-51h-358v-922h-55v922h-170z" />
<glyph unicode="g" horiz-adv-x="1349" d="M133 487q0 129 44 224.5t119 159t176 94t218 30.5q104 0 212 -22.5t216 -69.5v-907q0 -109 -37 -185.5t-102.5 -126t-154.5 -73t-193 -23.5q-115 0 -229.5 31t-211.5 88v60q98 -59 214 -92t229 -33q88 0 166 18t136 59t93 110t35 171v150q-31 -29 -74 -60t-95 -55.5 t-115.5 -41t-137.5 -16.5q-104 0 -197.5 33t-162 97.5t-108.5 159.5t-40 220zM190 487q0 -115 37 -200.5t98.5 -142t143.5 -85t172 -28.5q70 0 132.5 16t115.5 42t97 58.5t77 67.5v651q-92 37 -187.5 56.5t-187.5 19.5q-102 0 -192 -26.5t-158 -82t-108 -141.5t-40 -205z " />
<glyph unicode="h" horiz-adv-x="1341" d="M231 0v1454h56v-602q82 53 188.5 98t239.5 45q88 0 162.5 -21.5t130 -65.5t87 -110.5t31.5 -154.5v-643h-55v643q0 145 -98.5 222t-257.5 77q-131 0 -236.5 -46t-191.5 -108v-788h-56z" />
<glyph unicode="i" horiz-adv-x="518" d="M229 1237v147h60v-147h-60zM231 0v973h56v-973h-56z" />
<glyph unicode="j" horiz-adv-x="520" d="M-41 -322q35 -18 67.5 -27t75.5 -9q59 0 94 31.5t35 93.5v1206h56v-1206q0 -90 -52.5 -134.5t-132.5 -44.5q-35 0 -74.5 8.5t-68.5 24.5v57zM229 1237v147h60v-147h-60z" />
<glyph unicode="k" horiz-adv-x="1095" d="M231 0v1454h56v-903l682 422h96l-723 -451l741 -522h-86l-710 496v-496h-56z" />
<glyph unicode="l" horiz-adv-x="565" d="M213 154v1300h55v-1300q0 -61 35 -93t94 -32q43 0 76 9t68 28v-58q-29 -16 -69 -24.5t-75 -8.5q-80 0 -132 44t-52 135z" />
<glyph unicode="m" horiz-adv-x="2140" d="M231 0v973h56v-121q92 70 195.5 106.5t219.5 36.5q115 0 213.5 -42t149.5 -134q109 92 224.5 134t232.5 42q78 0 150.5 -19.5t129 -62.5t90 -109.5t33.5 -160.5v-643h-55v643q0 80 -29 136.5t-77 93t-111.5 53t-132.5 16.5q-119 0 -229.5 -45t-203.5 -129q18 -55 19 -125 v-643h-55v643q0 80 -29 136.5t-77 93t-111.5 53t-133.5 16.5q-117 0 -223 -42t-190 -112v-788h-56z" />
<glyph unicode="n" horiz-adv-x="1361" d="M231 0v973h56v-121q82 53 188.5 98t239.5 45q88 0 162.5 -21.5t130 -65.5t87 -110.5t31.5 -154.5v-643h-55v643q0 145 -98.5 222t-257.5 77q-131 0 -236.5 -46t-191.5 -108v-788h-56z" />
<glyph unicode="o" horiz-adv-x="1417" d="M133 485q0 111 43 205t119 162t181.5 105.5t232.5 37.5q125 0 231.5 -37.5t182 -105.5t118.5 -162t43 -205t-43 -204t-118.5 -160.5t-182 -105.5t-231.5 -38q-127 0 -232.5 38t-181.5 105.5t-119 161t-43 203.5zM190 485q0 -100 38 -183t106.5 -143.5t164 -94 t210.5 -33.5t210 33.5t163.5 94t106.5 143.5t38 183t-38 184.5t-106.5 144.5t-163.5 94t-210 34t-210.5 -34t-164 -94t-106.5 -144t-38 -185z" />
<glyph unicode="p" horiz-adv-x="1349" d="M231 -389v1362h56v-121q82 53 188.5 98t239.5 45q111 0 204 -34.5t158.5 -100t102.5 -160t37 -213.5q0 -131 -41 -227t-112 -158.5t-166 -93.5t-202 -31q-121 0 -221 30t-188 83v-479h-56zM287 150q47 -29 92 -51.5t93 -38t103.5 -22.5t122.5 -7q88 0 172 24.5 t147.5 79.5t102.5 142.5t39 209.5q0 106 -34.5 191.5t-94 144t-140.5 89t-175 30.5q-131 0 -236.5 -46t-191.5 -108v-638z" />
<glyph unicode="q" horiz-adv-x="1349" d="M133 487q0 129 44 224.5t119 159t176 94t218 30.5q104 0 212 -22.5t216 -69.5v-1292h-55v539q-31 -29 -74 -60t-95 -55.5t-115.5 -41t-137.5 -16.5q-104 0 -197.5 33t-162 97.5t-108.5 159.5t-40 220zM190 487q0 -115 37 -200.5t98.5 -142t143.5 -85t172 -28.5 q70 0 132.5 16t115.5 42t97 58.5t77 67.5v651q-92 37 -187.5 56.5t-187.5 19.5q-102 0 -192 -26.5t-158 -82t-108 -141.5t-40 -205z" />
<glyph unicode="r" horiz-adv-x="794" d="M231 0v973h56v-168q39 37 92 71.5t114.5 61.5t128 42t132.5 15v-53q-127 0 -252 -55.5t-215 -147.5v-739h-56z" />
<glyph unicode="s" horiz-adv-x="1101" d="M145 84v57q86 -51 187.5 -80.5t218.5 -29.5q162 0 256 54t94 161q0 80 -55 122t-139 65.5t-181.5 37.5t-181.5 41t-139 76t-55 139q0 123 113.5 195.5t307.5 72.5q117 0 217.5 -25.5t153.5 -56.5v-57q-63 37 -164.5 61.5t-206.5 24.5q-78 0 -144.5 -13.5t-115.5 -41 t-76.5 -67.5t-27.5 -93q0 -78 55 -117t139 -60.5t181.5 -35.5t181.5 -42t139 -78t55 -144q0 -68 -30.5 -118t-85 -85t-130 -52.5t-163.5 -17.5q-225 0 -404 107z" />
<glyph unicode="t" horiz-adv-x="741" d="M59 922v51h172l7 309h49v-309h385v-51h-385v-684q0 -109 63.5 -158t153.5 -49q100 0 188 47v-58q-43 -23 -92 -33t-96 -10q-57 0 -107.5 15.5t-87.5 47.5t-57.5 81t-20.5 117v684h-172z" />
<glyph unicode="u" horiz-adv-x="1306" d="M209 371v602h55v-602q0 -92 24.5 -158t71 -105.5t112 -58t144.5 -18.5q61 0 120 16t111 42t96 58.5t77 67.5v758h55v-973h-55v150q-31 -29 -74 -60t-94 -55.5t-110.5 -41t-125.5 -16.5q-92 0 -166.5 23t-128 70t-83 121.5t-29.5 179.5z" />
<glyph unicode="v" horiz-adv-x="1060" d="M10 973h60l454 -907l463 907h64l-498 -973h-55z" />
<glyph unicode="w" horiz-adv-x="1777" d="M20 973h60l383 -903l399 903h53l400 -903l383 903h59l-414 -973h-53l-401 897l-402 -897h-53z" />
<glyph unicode="x" horiz-adv-x="989" d="M16 0l445 489l-434 484h69l398 -445l399 445h72l-437 -484l445 -489h-72l-407 451l-404 -451h-74z" />
<glyph unicode="y" horiz-adv-x="1306" d="M209 371v602h55v-602q0 -92 24.5 -158t71 -105.5t112 -58t144.5 -18.5q61 0 120 16t111 42t96 58.5t77 67.5v758h55v-977q0 -111 -39 -188.5t-105.5 -126t-151.5 -71t-177 -22.5t-185 20.5t-173 57.5v60q72 -37 167 -60.5t191 -23.5q80 0 156 18t134 60t93 110t35 166 v154q-31 -29 -74 -60t-94 -55.5t-111.5 -41t-126.5 -16.5q-90 0 -164.5 23t-128 70t-83 121.5t-29.5 179.5z" />
<glyph unicode="z" horiz-adv-x="1069" d="M111 0v49l766 873h-746v51h819v-47l-764 -869h783v-57h-858z" />
<glyph unicode="{" horiz-adv-x="690" d="M37 504v57q74 20 127 43t87 56.5t50 85t16 131.5v297q0 137 78 208.5t221 71.5h50v-53h-43q-121 0 -184.5 -54.5t-63.5 -172.5v-297q0 -80 -17.5 -137.5t-51.5 -97.5t-85 -65.5t-119 -44.5q68 -18 119 -43.5t85 -65.5t51.5 -97.5t17.5 -137.5v-297q0 -119 63.5 -173 t184.5 -54h43v-53h-50q-143 0 -221 71.5t-78 208.5v297q0 80 -16 131.5t-50 85t-87 55t-127 44.5z" />
<glyph unicode="|" horiz-adv-x="653" d="M295 -389v2027h55v-2027h-55z" />
<glyph unicode="}" horiz-adv-x="690" d="M24 -336v-53h50q143 0 221 71.5t78 208.5v297q0 80 16 131.5t50 85t87 55t127 44.5v57q-74 20 -127 43t-87 56.5t-50 85t-16 131.5v297q0 137 -78 208.5t-221 71.5h-50v-53h43q121 0 184.5 -54.5t63.5 -172.5v-297q0 -80 17.5 -137.5t51.5 -97.5t85 -65.5t119 -44.5 q-68 -18 -119 -43.5t-85 -65.5t-51.5 -97.5t-17.5 -137.5v-297q0 -119 -63.5 -173t-184.5 -54h-43z" />
<glyph unicode="~" d="M145 524q0 100 60.5 155.5t142.5 55.5q74 0 166 -24.5t188.5 -54t186.5 -54t158 -24.5q53 0 99 38.5t46 116.5h57q0 -100 -60.5 -155.5t-141.5 -55.5q-74 0 -166.5 24.5t-188.5 54.5t-186 54.5t-158 24.5q-53 0 -99 -39t-46 -117h-58z" />
<glyph unicode="&#xa1;" horiz-adv-x="641" d="M283 -389l8 1014h57l8 -1014h-73zM283 862v111h75v-111h-75z" />
<glyph unicode="&#xa2;" horiz-adv-x="1200" d="M137 696q0 115 35 210t99.5 168t156.5 118t207 61v338h53v-334q14 2 27.5 2.5t29.5 0.5q84 0 151 -13.5t132 -40.5v-61q-133 57 -283 57q-119 0 -219 -32.5t-172.5 -96t-113.5 -159t-41 -218.5q0 -119 38.5 -213t110.5 -158.5t173.5 -99.5t223.5 -35q160 0 295 66v-59 q-127 -63 -295 -64h-29.5t-27.5 2v-360h-53v364q-115 14 -207 60.5t-156.5 119t-99.5 168t-35 209.5z" />
<glyph unicode="&#xa3;" horiz-adv-x="1200" d="M72 0v57q76 43 133 82t96 82t58.5 96.5t19.5 122.5q0 57 -17.5 124t-39.5 132h-244v58h221q-16 43 -27.5 78.5t-18.5 69.5t-11 68t-4 72q0 80 30.5 147.5t89 116t140.5 75t184 26.5q111 0 200 -20.5t160 -55.5v-63q-96 45 -181 63.5t-173 18.5q-92 0 -163.5 -22.5 t-123 -62.5t-78 -96.5t-26.5 -124.5q0 -39 4 -70.5t12.5 -65.5t21.5 -70.5t30 -83.5h534v-58h-512q18 -59 36.5 -130.5t18.5 -125.5q0 -76 -20.5 -133t-56 -102t-85 -81t-106.5 -67h889v-57h-991z" />
<glyph unicode="&#xa4;" d="M207 240l192 192q-47 53 -72.5 119.5t-25.5 142.5t25.5 142.5t72.5 119.5l-192 193l33 33l192 -193q53 47 119.5 74t144.5 27t144.5 -27t120.5 -74l192 193l33 -33l-193 -193q47 -53 73 -119.5t26 -142.5t-26 -142.5t-73 -119.5l193 -192l-33 -33l-192 192 q-53 -47 -120 -73.5t-145 -26.5t-144.5 26.5t-119.5 73.5l-192 -192zM352 694q0 -72 27 -134t74 -109.5t109.5 -74t133.5 -26.5q72 0 134.5 26.5t109.5 74t73.5 109.5t26.5 134t-26.5 134.5t-73.5 109.5t-109.5 73.5t-134.5 26.5t-134 -26.5t-109 -73.5t-74 -109.5 t-27 -134.5z" />
<glyph unicode="&#xa5;" horiz-adv-x="1331" d="M61 1384h74l516 -667l547 667h72l-572 -698h430v-57h-446v-275h446v-57h-446v-297h-64v297h-446v57h446v275h-446v57h428z" />
<glyph unicode="&#xa6;" horiz-adv-x="653" d="M295 -389v840h55v-840h-55zM295 799v839h55v-839h-55z" />
<glyph unicode="&#xa7;" horiz-adv-x="1290" d="M180 -236q88 -55 209 -85.5t234 -30.5q80 0 158.5 15t141 52t101.5 98.5t39 153.5q0 82 -37 134.5t-98.5 86t-139 54t-159.5 40t-160 43t-139.5 62.5t-98 98.5t-36.5 151.5q0 61 21.5 110.5t59.5 90.5q-39 37 -60 87t-21 122q0 94 42 161.5t109.5 111.5t151.5 65.5 t168 21.5q143 0 241.5 -25.5t173.5 -66.5v-60q-76 41 -173 68t-242 27q-78 0 -152 -18.5t-132 -55.5t-94 -94.5t-36 -134.5q0 -80 38 -131.5t98.5 -84t139 -53t159.5 -40t160 -43t139.5 -63.5t98 -100.5t37.5 -154.5q0 -63 -19.5 -114.5t-53.5 -92.5q35 -37 54 -87t19 -116 q0 -100 -41 -170.5t-110.5 -117t-160.5 -68t-189 -21.5q-57 0 -118 7.5t-119 21.5t-111.5 34.5t-92.5 45.5v65zM252 637q0 -82 40 -134t103.5 -85t145.5 -53.5t164.5 -41t161.5 -46t139 -70.5q57 70 57 170q0 84 -39 136t-101.5 86t-142.5 54.5t-162.5 40t-162 44 t-138.5 65.5q-31 -33 -48 -74t-17 -92z" />
<glyph unicode="&#xa8;" horiz-adv-x="1228" d="M389 1237v147h60v-147h-60zM780 1237v147h60v-147h-60z" />
<glyph unicode="&#xa9;" horiz-adv-x="1994" d="M168 692q0 166 59.5 298t168 225.5t261 142.5t340.5 49t342 -49t262.5 -142.5t167 -225.5t58.5 -298t-58.5 -298t-167 -224t-262 -142.5t-342.5 -50.5q-188 0 -340.5 50.5t-261 142.5t-168 224t-59.5 298zM227 692q0 -158 55.5 -279.5t156 -205.5t242.5 -128t314 -44 q174 0 317.5 44t244 128t155.5 206t55 279q0 156 -55 279t-155.5 207t-244 128t-317.5 44q-172 0 -314 -44t-242.5 -128t-156 -207t-55.5 -279zM592 692q0 98 35 172t96 124t144 74.5t177 24.5q61 0 135 -13t128 -42v-55q-59 29 -130 43t-133 14q-84 0 -155.5 -20.5 t-124.5 -63.5t-84 -107.5t-31 -150.5t31 -150.5t84 -107.5t125 -63.5t155 -20.5q61 0 134 16.5t133 45.5v-56q-53 -29 -129 -44t-138 -15q-94 0 -177 24.5t-144 74.5t-96 124t-35 172z" />
<glyph unicode="&#xaa;" horiz-adv-x="1017" d="M174 1092q0 84 31 143t81 98t114.5 56.5t134.5 17.5q59 0 117.5 -11.5t111.5 -29.5v-569h-53v77q-39 -39 -102.5 -64.5t-129.5 -25.5q-61 0 -116.5 18.5t-97.5 57.5t-66.5 96.5t-24.5 135.5zM229 1090q0 -68 20.5 -115t55.5 -77t80 -44t94 -14q70 0 132.5 26.5t99.5 71.5 v387q-82 29 -174 29q-59 0 -114.5 -14.5t-98.5 -46t-69 -82t-26 -121.5z" />
<glyph unicode="&#xab;" horiz-adv-x="1187" d="M125 508l346 407h68l-342 -407l342 -408h-68zM649 508l346 407h68l-342 -407l342 -408h-68z" />
<glyph unicode="&#xac;" d="M135 817v55h1122v-454h-55v399h-1067z" />
<glyph unicode="&#xad;" horiz-adv-x="935" d="M211 578v55h514v-55h-514z" />
<glyph unicode="&#xae;" horiz-adv-x="1310" d="M158 977q0 94 37.5 174t104.5 136t158 88t197 32t197.5 -32t158 -88t104.5 -136t38 -174q0 -96 -38 -175t-104.5 -135.5t-157.5 -88t-198 -31.5q-106 0 -197 31.5t-158 88t-104.5 135.5t-37.5 175zM211 977q0 -86 35 -156.5t94 -121t141 -77t174 -26.5q94 0 175 26.5 t140.5 77t94.5 121t35 156.5q0 88 -35 157.5t-94.5 119t-140.5 76t-175 26.5q-92 0 -174 -26.5t-141 -76t-94 -119t-35 -157.5zM516 760v440h166q78 0 125 -32.5t47 -92.5q0 -59 -40 -89t-112 -36l172 -190h-59l-168 186h-82v-186h-49zM565 993h119q55 0 87 21.5t32 58.5 q0 41 -33 60.5t-88 19.5h-117v-160z" />
<glyph unicode="&#xaf;" horiz-adv-x="1228" d="M344 1274v49h541v-49h-541z" />
<glyph unicode="&#xb0;" horiz-adv-x="776" d="M129 1149q0 55 20.5 102t55.5 82t83 54.5t101 19.5t100.5 -19.5t82 -54.5t55 -82t20.5 -102q0 -53 -20.5 -100.5t-55 -81t-82 -53t-100.5 -19.5t-101 19.5t-83 53t-55.5 81t-20.5 100.5zM182 1149q0 -86 59.5 -144.5t147.5 -58.5t146.5 58.5t58.5 144.5q0 88 -58.5 147.5 t-146.5 59.5t-147.5 -59.5t-59.5 -147.5z" />
<glyph unicode="&#xb1;" d="M135 0v57h1122v-57h-1122zM135 616v56h535v428h55v-428h532v-56h-532v-428h-55v428h-535z" />
<glyph unicode="&#xb2;" horiz-adv-x="919" d="M139 541v47l334 297q43 39 77 70.5t56.5 62.5t34.5 64.5t12 76.5q0 51 -20.5 88t-54 59.5t-77.5 33t-91 10.5q-68 0 -133.5 -18.5t-110.5 -47.5v59q47 29 110.5 46.5t131.5 17.5q57 0 112 -13.5t98.5 -44t70 -77.5t26.5 -115q0 -51 -17.5 -94t-45 -80t-64.5 -70.5 t-74 -66.5l-287 -250h498v-55h-586z" />
<glyph unicode="&#xb3;" horiz-adv-x="940" d="M156 590v57q49 -25 115.5 -43t142.5 -18q53 0 104 11t92 34.5t66.5 62.5t25.5 94q0 61 -26.5 99.5t-69.5 60t-95 28.5t-101 7q-29 0 -50.5 -1t-33.5 -3v49l329 301h-491v55h571v-53l-321 -295h14q59 0 118.5 -13t107.5 -42t78 -76t30 -117q0 -61 -25.5 -108t-72 -80 t-111 -50.5t-139.5 -17.5q-76 0 -143.5 17.5t-114.5 40.5z" />
<glyph unicode="&#xb4;" horiz-adv-x="1228" d="M446 1145l205 309h72l-221 -309h-56z" />
<glyph unicode="&#xb5;" horiz-adv-x="1329" d="M231 -389v1362h56v-604q0 -92 25.5 -157t71.5 -104.5t111.5 -58t143.5 -18.5q61 0 119.5 16t111 42t96.5 58.5t76 67.5v758h56v-973h-56v150q-31 -29 -73.5 -60t-94 -55.5t-112 -41t-125.5 -16.5q-123 0 -213 41t-137 129v-536h-56z" />
<glyph unicode="&#xb6;" horiz-adv-x="1609" d="M141 940q0 119 47.5 204t133.5 138t205.5 77.5t265.5 24.5h137v-1773h-64v887h-73q-145 0 -265 24.5t-206 77.5t-133.5 137t-47.5 203zM1280 -389v1773h61v-1773h-61z" />
<glyph unicode="&#xb7;" horiz-adv-x="552" d="M238 551v111h75v-111h-75z" />
<glyph unicode="&#xb8;" horiz-adv-x="1228" d="M465 -322q57 -23 121 -22q49 0 88 22.5t39 73.5q0 47 -38 67.5t-87 20.5h-82l51 160h53l-35 -111h13q33 0 64.5 -7t58 -22.5t43 -42t16.5 -65.5q0 -66 -50 -106.5t-134 -40.5q-37 0 -65.5 5t-55.5 15v53z" />
<glyph unicode="&#xb9;" horiz-adv-x="698" d="M106 1329v55h316v-843h-60v788h-256z" />
<glyph unicode="&#xba;" horiz-adv-x="976" d="M150 1098q0 68 25.5 124t71.5 98t107.5 64.5t132.5 22.5q72 0 133.5 -22.5t107.5 -64.5t71.5 -98t25.5 -124t-25.5 -124t-71.5 -98t-107.5 -65t-133.5 -23t-133 23t-107 65t-71.5 98t-25.5 124zM207 1098q0 -121 75.5 -188.5t204.5 -67.5t205 67.5t76 188.5t-76 188.5 t-205 67.5t-204.5 -67.5t-75.5 -188.5z" />
<glyph unicode="&#xbb;" horiz-adv-x="1187" d="M125 100h68l346 408l-346 407h-68l342 -407zM649 100h68l346 408l-346 407h-68l342 -407z" />
<glyph unicode="&#xbc;" horiz-adv-x="1679" d="M106 1329v55h316v-843h-60v788h-256zM293 0l903 1384h68l-906 -1384h-65zM854 203v45l498 612h57v-602h152v-55h-152v-203h-61v203h-494zM932 258h416v508z" />
<glyph unicode="&#xbd;" horiz-adv-x="1841" d="M106 1329v55h316v-843h-60v788h-256zM293 0l903 1384h68l-905 -1384h-66zM1061 2v47l334 297q43 39 77 70.5t56.5 62.5t34.5 64.5t12 76.5q0 51 -20.5 88t-54 59.5t-77.5 33t-91 10.5q-68 0 -133.5 -18.5t-110.5 -47.5v59q47 29 110.5 46.5t131.5 17.5q57 0 112 -13.5 t98.5 -44t70 -77.5t26.5 -115q0 -51 -17.5 -94t-45 -80t-64.5 -70.5t-74 -66.5l-287 -250h498v-55h-586z" />
<glyph unicode="&#xbe;" horiz-adv-x="1873" d="M156 590v57q49 -25 115.5 -43t142.5 -18q53 0 104 11t92 34.5t66.5 62.5t25.5 94q0 61 -26.5 99.5t-69.5 60t-95 28.5t-101 7q-29 0 -50.5 -1t-33.5 -3v49l329 301h-491v55h571v-53l-321 -295h14q59 0 118.5 -13t107.5 -42t78 -76t30 -117q0 -61 -25.5 -108t-72 -80 t-111 -50.5t-139.5 -17.5q-76 0 -143.5 17.5t-114.5 40.5zM530 0l904 1384h67l-905 -1384h-66zM1049 203v45l497 612h58v-602h151v-55h-151v-203h-62v203h-493zM1126 258h416v508z" />
<glyph unicode="&#xbf;" horiz-adv-x="700" d="M16 -131q0 61 18.5 109.5t48.5 88t65.5 74.5t70.5 70q45 45 80 76.5t58.5 62.5t34.5 65t11 87v137h60v-137q0 -55 -14.5 -98.5t-41 -81t-64.5 -74.5t-85 -80q-72 -66 -125 -134.5t-53 -162.5q0 -66 24.5 -110t64.5 -69.5t93 -35.5t111 -10q72 0 149.5 17.5t132.5 45.5 v-57q-53 -29 -131 -46.5t-155 -17.5q-74 0 -138.5 16.5t-112.5 51.5t-75 88t-27 125zM395 862v111h76v-111h-76z" />
<glyph unicode="&#xc0;" horiz-adv-x="1384" d="M0 0l664 1384h61l659 -1384h-67l-207 432h-838l-204 -432h-68zM301 489h782l-391 820zM451 1833h71l205 -309h-55z" />
<glyph unicode="&#xc1;" horiz-adv-x="1384" d="M0 0l664 1384h61l659 -1384h-67l-207 432h-838l-204 -432h-68zM301 489h782l-391 820zM667 1524l205 309h72l-221 -309h-56z" />
<glyph unicode="&#xc2;" horiz-adv-x="1384" d="M0 0l664 1384h61l659 -1384h-67l-207 432h-838l-204 -432h-68zM301 489h782l-391 820zM436 1524l232 309h49l231 -309h-55l-201 248l-200 -248h-56z" />
<glyph unicode="&#xc3;" horiz-adv-x="1384" d="M0 0l664 1384h61l659 -1384h-67l-207 432h-838l-204 -432h-68zM301 489h782l-391 820zM395 1577q2 37 12.5 73t29 64.5t47 46t67.5 17.5t77 -23.5t75 -51.5t69.5 -50.5t61.5 -22.5q27 0 45 13.5t30.5 34t18.5 46t6 50.5h55q-2 -37 -12 -73t-28.5 -64.5t-47 -46 t-67.5 -17.5q-37 0 -75 23.5t-75 51t-70.5 51.5t-62.5 24q-53 0 -75.5 -47.5t-24.5 -98.5h-56z" />
<glyph unicode="&#xc4;" horiz-adv-x="1384" d="M0 0l664 1384h61l659 -1384h-67l-207 432h-838l-204 -432h-68zM301 489h782l-391 820zM467 1602v147h60v-147h-60zM858 1602v147h60v-147h-60z" />
<glyph unicode="&#xc5;" horiz-adv-x="1384" d="M0 0l664 1384h61l659 -1384h-67l-207 432h-838l-204 -432h-68zM301 489h782l-391 820zM465 1679q0 43 19.5 76t52.5 56.5t72.5 35t82.5 11.5t83 -11.5t73 -35t52.5 -56.5t19.5 -76q0 -45 -19.5 -78.5t-52.5 -57t-73 -35t-83 -11.5t-82.5 11.5t-72.5 35t-52.5 57 t-19.5 78.5zM522 1677q0 -61 49.5 -95t120.5 -34q72 0 121 34t49 95t-49 95t-121 34t-121 -33.5t-49 -95.5z" />
<glyph unicode="&#xc6;" horiz-adv-x="2021" d="M-66 0l992 1384h891v-57h-795v-571h739v-58h-739v-395q0 -123 67.5 -184.5t233.5 -61.5h539v-57h-539q-201 0 -283 80t-82 223v129h-641l-313 -432h-70zM354 489h604v836z" />
<glyph unicode="&#xc7;" horiz-adv-x="1525" d="M168 692q0 160 58.5 292t166 226.5t259 145.5t337.5 51q111 0 200 -15.5t175 -48.5v-59q-88 35 -178 50.5t-197 15.5q-172 0 -312 -47.5t-238.5 -133.5t-153 -207.5t-54.5 -269.5q0 -147 54.5 -269t153 -208t238.5 -133t312 -47q115 0 212 20.5t181 57.5v-60 q-84 -35 -180 -55.5t-213 -20.5q-37 0 -72.5 2.5t-70.5 6.5l-31 -97h12q33 0 65 -7t58.5 -22.5t43 -42t16.5 -65.5q0 -66 -50.5 -106.5t-134.5 -40.5q-37 0 -65.5 5t-54.5 15v53q57 -23 120 -22q49 0 88 22.5t39 73.5q0 47 -37.5 67.5t-87.5 20.5h-82l50 154 q-145 25 -261 85t-197 150t-125 207t-44 256z" />
<glyph unicode="&#xc8;" horiz-adv-x="1331" d="M268 303v1081h858v-57h-794v-571h739v-58h-739v-395q0 -123 67.5 -184.5t233.5 -61.5h538v-57h-538q-201 0 -283 80t-82 223zM471 1833h71l205 -309h-55z" />
<glyph unicode="&#xc9;" horiz-adv-x="1331" d="M268 303v1081h858v-57h-794v-571h739v-58h-739v-395q0 -123 67.5 -184.5t233.5 -61.5h538v-57h-538q-201 0 -283 80t-82 223zM643 1524l205 309h72l-221 -309h-56z" />
<glyph unicode="&#xca;" horiz-adv-x="1331" d="M268 303v1081h858v-57h-794v-571h739v-58h-739v-395q0 -123 67.5 -184.5t233.5 -61.5h538v-57h-538q-201 0 -283 80t-82 223zM438 1524l232 309h49l231 -309h-55l-201 248l-200 -248h-56z" />
<glyph unicode="&#xcb;" horiz-adv-x="1331" d="M268 303v1081h858v-57h-794v-571h739v-58h-739v-395q0 -123 67.5 -184.5t233.5 -61.5h538v-57h-538q-201 0 -283 80t-82 223zM469 1606v147h60v-147h-60zM860 1606v147h60v-147h-60z" />
<glyph unicode="&#xcc;" horiz-adv-x="641" d="M76 1833h71l205 -309h-55zM289 0v1384h63v-1384h-63z" />
<glyph unicode="&#xcd;" horiz-adv-x="641" d="M289 0v1384h63v-1384h-63zM292 1524l205 309h72l-221 -309h-56z" />
<glyph unicode="&#xce;" horiz-adv-x="641" d="M65 1524l232 309h49l231 -309h-55l-201 248l-200 -248h-56zM289 0v1384h63v-1384h-63z" />
<glyph unicode="&#xcf;" horiz-adv-x="641" d="M96 1604v147h60v-147h-60zM289 0v1384h63v-1384h-63zM487 1604v147h60v-147h-60z" />
<glyph unicode="&#xd0;" horiz-adv-x="1812" d="M82 696v58h207v630h428q242 0 417 -50t288.5 -142t168 -219t54.5 -281t-54.5 -281.5t-168 -219t-289 -141.5t-416.5 -50h-428v696h-207zM352 57h365q203 0 362.5 40t271 120t171 199t59.5 276q0 160 -59.5 279t-171 197.5t-271 118.5t-362.5 40h-365v-573h600v-58h-600 v-639z" />
<glyph unicode="&#xd1;" horiz-adv-x="1865" d="M289 0v1384h80l1142 -1314v1314h64v-1384h-80l-1143 1309v-1309h-63zM634 1577q2 37 12.5 73t29 64.5t47 46t67.5 17.5t77 -23.5t75 -51.5t69.5 -50.5t61.5 -22.5q27 0 45 13.5t30.5 34t18.5 46t6 50.5h55q-2 -37 -12 -73t-28.5 -64.5t-47 -46t-67.5 -17.5 q-37 0 -75 23.5t-75 51t-70.5 51.5t-62.5 24q-53 0 -75.5 -47.5t-24.5 -98.5h-56z" />
<glyph unicode="&#xd2;" horiz-adv-x="1978" d="M168 692q0 160 58.5 292t166 226.5t259 145.5t337.5 51t338 -51t259.5 -145.5t165.5 -226.5t58 -292t-58 -292t-165.5 -226t-259 -145.5t-338.5 -51.5q-186 0 -337.5 51.5t-259 145.5t-166 226t-58.5 292zM231 692q0 -147 54.5 -269t153 -208t238.5 -133t312 -47 t312.5 47t238.5 133t152.5 208t54.5 269t-54.5 269t-152.5 208t-238.5 133.5t-312.5 47.5t-312 -47.5t-238.5 -133.5t-153 -207.5t-54.5 -269.5zM727 1833h71l205 -309h-55z" />
<glyph unicode="&#xd3;" horiz-adv-x="1978" d="M168 692q0 160 58.5 292t166 226.5t259 145.5t337.5 51t338 -51t259.5 -145.5t165.5 -226.5t58 -292t-58 -292t-165.5 -226t-259 -145.5t-338.5 -51.5q-186 0 -337.5 51.5t-259 145.5t-166 226t-58.5 292zM231 692q0 -147 54.5 -269t153 -208t238.5 -133t312 -47 t312.5 47t238.5 133t152.5 208t54.5 269t-54.5 269t-152.5 208t-238.5 133.5t-312.5 47.5t-312 -47.5t-238.5 -133.5t-153 -207.5t-54.5 -269.5zM948 1524l205 309h72l-221 -309h-56z" />
<glyph unicode="&#xd4;" horiz-adv-x="1978" d="M168 692q0 160 58.5 292t166 226.5t259 145.5t337.5 51t338 -51t259.5 -145.5t165.5 -226.5t58 -292t-58 -292t-165.5 -226t-259 -145.5t-338.5 -51.5q-186 0 -337.5 51.5t-259 145.5t-166 226t-58.5 292zM231 692q0 -147 54.5 -269t153 -208t238.5 -133t312 -47 t312.5 47t238.5 133t152.5 208t54.5 269t-54.5 269t-152.5 208t-238.5 133.5t-312.5 47.5t-312 -47.5t-238.5 -133.5t-153 -207.5t-54.5 -269.5zM733 1524l232 309h49l231 -309h-55l-201 248l-200 -248h-56z" />
<glyph unicode="&#xd5;" horiz-adv-x="1978" d="M168 692q0 160 58.5 292t166 226.5t259 145.5t337.5 51t338 -51t259.5 -145.5t165.5 -226.5t58 -292t-58 -292t-165.5 -226t-259 -145.5t-338.5 -51.5q-186 0 -337.5 51.5t-259 145.5t-166 226t-58.5 292zM231 692q0 -147 54.5 -269t153 -208t238.5 -133t312 -47 t312.5 47t238.5 133t152.5 208t54.5 269t-54.5 269t-152.5 208t-238.5 133.5t-312.5 47.5t-312 -47.5t-238.5 -133.5t-153 -207.5t-54.5 -269.5zM692 1577q2 37 12.5 73t29 64.5t47 46t67.5 17.5t77 -23.5t75 -51.5t69.5 -50.5t61.5 -22.5q27 0 45 13.5t30.5 34t18.5 46 t6 50.5h55q-2 -37 -12 -73t-28.5 -64.5t-47 -46t-67.5 -17.5q-37 0 -75 23.5t-75 51t-70.5 51.5t-62.5 24q-53 0 -75.5 -47.5t-24.5 -98.5h-56z" />
<glyph unicode="&#xd6;" horiz-adv-x="1978" d="M168 692q0 160 58.5 292t166 226.5t259 145.5t337.5 51t338 -51t259.5 -145.5t165.5 -226.5t58 -292t-58 -292t-165.5 -226t-259 -145.5t-338.5 -51.5q-186 0 -337.5 51.5t-259 145.5t-166 226t-58.5 292zM231 692q0 -147 54.5 -269t153 -208t238.5 -133t312 -47 t312.5 47t238.5 133t152.5 208t54.5 269t-54.5 269t-152.5 208t-238.5 133.5t-312.5 47.5t-312 -47.5t-238.5 -133.5t-153 -207.5t-54.5 -269.5zM764 1608v147h60v-147h-60zM1155 1608v147h60v-147h-60z" />
<glyph unicode="&#xd7;" d="M252 238l407 405l-407 404l37 43l409 -404l404 404l37 -43l-408 -404l408 -405l-37 -41l-408 403l-405 -403z" />
<glyph unicode="&#xd8;" horiz-adv-x="1978" d="M168 692q0 160 58.5 292t166 226.5t259 145.5t337.5 51q147 0 271 -33t225 -92l164 180l41 -37l-158 -174q133 -94 205.5 -236.5t72.5 -322.5q0 -160 -58 -292t-165.5 -226t-259 -145.5t-338.5 -51.5q-295 0 -497 125l-164 -180l-39 39l155 172q-133 94 -204.5 236.5 t-71.5 322.5zM231 692q0 -166 65.5 -297t188.5 -217l959 1059q-92 53 -206 83t-249 30q-172 0 -312 -47.5t-238.5 -133.5t-153 -208t-54.5 -269zM532 147q184 -113 457 -112q172 0 312.5 47t238.5 133t152.5 208t54.5 269q0 166 -66.5 297t-189.5 217z" />
<glyph unicode="&#xd9;" horiz-adv-x="1632" d="M248 471v913h63v-913q0 -111 41 -193.5t110.5 -136t162 -80t192.5 -26.5q104 0 196.5 27.5t162 83t109.5 136t40 189.5v913h59v-913q0 -125 -47 -218t-124.5 -154.5t-180 -91.5t-215.5 -30t-215 30t-181 91.5t-126 154.5t-47 218zM570 1833h71l205 -309h-55z" />
<glyph unicode="&#xda;" horiz-adv-x="1632" d="M248 471v913h63v-913q0 -111 41 -193.5t110.5 -136t162 -80t192.5 -26.5q104 0 196.5 27.5t162 83t109.5 136t40 189.5v913h59v-913q0 -125 -47 -218t-124.5 -154.5t-180 -91.5t-215.5 -30t-215 30t-181 91.5t-126 154.5t-47 218zM776 1524l205 309h72l-221 -309h-56z " />
<glyph unicode="&#xdb;" horiz-adv-x="1632" d="M248 471v913h63v-913q0 -111 41 -193.5t110.5 -136t162 -80t192.5 -26.5q104 0 196.5 27.5t162 83t109.5 136t40 189.5v913h59v-913q0 -125 -47 -218t-124.5 -154.5t-180 -91.5t-215.5 -30t-215 30t-181 91.5t-126 154.5t-47 218zM559 1524l232 309h49l231 -309h-55 l-201 248l-200 -248h-56z" />
<glyph unicode="&#xdc;" horiz-adv-x="1632" d="M248 471v913h63v-913q0 -111 41 -193.5t110.5 -136t162 -80t192.5 -26.5q104 0 196.5 27.5t162 83t109.5 136t40 189.5v913h59v-913q0 -125 -47 -218t-124.5 -154.5t-180 -91.5t-215.5 -30t-215 30t-181 91.5t-126 154.5t-47 218zM590 1602v147h60v-147h-60zM981 1602 v147h60v-147h-60z" />
<glyph unicode="&#xdd;" horiz-adv-x="1290" d="M0 1384h72l575 -759l570 759h73l-612 -823v-561h-64v561zM608 1524l205 309h72l-221 -309h-56z" />
<glyph unicode="&#xde;" horiz-adv-x="1406" d="M289 0v1384h63v-274h350q281 0 422.5 -109.5t141.5 -295.5t-141.5 -296t-422.5 -110h-350v-299h-63zM352 356h350q242 0 371 91.5t129 257.5t-129 257t-371 91h-350v-697z" />
<glyph unicode="&#xdf;" horiz-adv-x="1271" d="M231 0v1137q0 74 29 135t81 107t124 72t160 26t159.5 -26t124 -71t81 -107.5t28.5 -135.5q0 -63 -18.5 -110.5t-45 -84.5t-59.5 -65.5t-59.5 -56t-45 -57.5t-18.5 -67q0 -49 28.5 -82.5t71.5 -62.5t94.5 -55.5t94.5 -61.5t71.5 -83t28.5 -118q0 -115 -90 -185.5 t-264 -70.5q-94 0 -184.5 25t-143.5 55v58q61 -35 147.5 -59.5t182.5 -24.5q135 0 217 53t82 147q0 61 -28.5 103.5t-71.5 74t-93.5 58.5t-93.5 57.5t-71.5 71.5t-28.5 100q0 43 18.5 78t45 64.5t59.5 58.5t59.5 63.5t45 76.5t18.5 100q0 133 -95.5 209.5t-246.5 76.5 q-152 0 -245 -76.5t-93 -209.5v-1137h-56z" />
<glyph unicode="&#xe0;" horiz-adv-x="1349" d="M133 487q0 129 44 224.5t119 159t176 94t218 30.5q104 0 212 -22.5t216 -69.5v-903h-55v150q-31 -29 -74 -60t-95 -55.5t-115.5 -41t-137.5 -16.5q-104 0 -197.5 33t-162 97.5t-108.5 159.5t-40 220zM190 487q0 -115 37 -200.5t98.5 -142t143.5 -85t172 -28.5 q70 0 132.5 16t115.5 42t97 58.5t77 67.5v651q-92 37 -187.5 56.5t-187.5 19.5q-102 0 -192 -26.5t-158 -82t-108 -141.5t-40 -205zM426 1454h71l205 -309h-55z" />
<glyph unicode="&#xe1;" horiz-adv-x="1349" d="M133 487q0 129 44 224.5t119 159t176 94t218 30.5q104 0 212 -22.5t216 -69.5v-903h-55v150q-31 -29 -74 -60t-95 -55.5t-115.5 -41t-137.5 -16.5q-104 0 -197.5 33t-162 97.5t-108.5 159.5t-40 220zM190 487q0 -115 37 -200.5t98.5 -142t143.5 -85t172 -28.5 q70 0 132.5 16t115.5 42t97 58.5t77 67.5v651q-92 37 -187.5 56.5t-187.5 19.5q-102 0 -192 -26.5t-158 -82t-108 -141.5t-40 -205zM596 1145l205 309h72l-221 -309h-56z" />
<glyph unicode="&#xe2;" horiz-adv-x="1349" d="M133 487q0 129 44 224.5t119 159t176 94t218 30.5q104 0 212 -22.5t216 -69.5v-903h-55v150q-31 -29 -74 -60t-95 -55.5t-115.5 -41t-137.5 -16.5q-104 0 -197.5 33t-162 97.5t-108.5 159.5t-40 220zM190 487q0 -115 37 -200.5t98.5 -142t143.5 -85t172 -28.5 q70 0 132.5 16t115.5 42t97 58.5t77 67.5v651q-92 37 -187.5 56.5t-187.5 19.5q-102 0 -192 -26.5t-158 -82t-108 -141.5t-40 -205zM385 1145l232 309h49l231 -309h-55l-201 248l-200 -248h-56z" />
<glyph unicode="&#xe3;" horiz-adv-x="1349" d="M133 487q0 129 44 224.5t119 159t176 94t218 30.5q104 0 212 -22.5t216 -69.5v-903h-55v150q-31 -29 -74 -60t-95 -55.5t-115.5 -41t-137.5 -16.5q-104 0 -197.5 33t-162 97.5t-108.5 159.5t-40 220zM190 487q0 -115 37 -200.5t98.5 -142t143.5 -85t172 -28.5 q70 0 132.5 16t115.5 42t97 58.5t77 67.5v651q-92 37 -187.5 56.5t-187.5 19.5q-102 0 -192 -26.5t-158 -82t-108 -141.5t-40 -205zM344 1202q2 37 12.5 73t29 64.5t47 46t67.5 17.5t77 -23.5t75 -51.5t69.5 -50.5t61.5 -22.5q27 0 45 13.5t30.5 34t18.5 46t6 50.5h55 q-2 -37 -12 -73t-28.5 -64.5t-47 -46t-67.5 -17.5q-37 0 -75 23.5t-75 51t-70.5 51.5t-62.5 24q-53 0 -75.5 -47.5t-24.5 -98.5h-56z" />
<glyph unicode="&#xe4;" horiz-adv-x="1349" d="M133 487q0 129 44 224.5t119 159t176 94t218 30.5q104 0 212 -22.5t216 -69.5v-903h-55v150q-31 -29 -74 -60t-95 -55.5t-115.5 -41t-137.5 -16.5q-104 0 -197.5 33t-162 97.5t-108.5 159.5t-40 220zM190 487q0 -115 37 -200.5t98.5 -142t143.5 -85t172 -28.5 q70 0 132.5 16t115.5 42t97 58.5t77 67.5v651q-92 37 -187.5 56.5t-187.5 19.5q-102 0 -192 -26.5t-158 -82t-108 -141.5t-40 -205zM416 1237v147h60v-147h-60zM807 1237v147h60v-147h-60z" />
<glyph unicode="&#xe5;" horiz-adv-x="1349" d="M133 487q0 129 44 224.5t119 159t176 94t218 30.5q104 0 212 -22.5t216 -69.5v-903h-55v150q-31 -29 -74 -60t-95 -55.5t-115.5 -41t-137.5 -16.5q-104 0 -197.5 33t-162 97.5t-108.5 159.5t-40 220zM190 487q0 -115 37 -200.5t98.5 -142t143.5 -85t172 -28.5 q70 0 132.5 16t115.5 42t97 58.5t77 67.5v651q-92 37 -187.5 56.5t-187.5 19.5q-102 0 -192 -26.5t-158 -82t-108 -141.5t-40 -205zM414 1300q0 43 19.5 76t52.5 56.5t72.5 35t82.5 11.5t83 -11.5t73 -35t52.5 -56.5t19.5 -76q0 -45 -19.5 -78.5t-52.5 -57t-73 -35 t-83 -11.5t-82.5 11.5t-72.5 35t-52.5 57t-19.5 78.5zM471 1298q0 -61 49.5 -95t120.5 -34q72 0 121 34t49 95t-49 95t-121 34t-121 -33.5t-49 -95.5z" />
<glyph unicode="&#xe6;" horiz-adv-x="2080" d="M133 487q0 129 44 224.5t119 159t176 94t218 30.5q115 0 216.5 -24.5t217.5 -77.5q66 49 147 75.5t175 26.5q106 0 196.5 -33.5t158 -95t108.5 -146.5t49 -188v-47h-969q2 -123 43 -209t107.5 -141t153.5 -79.5t184 -24.5q113 0 226.5 26.5t211.5 85.5v-59 q-96 -57 -210 -82t-228 -25q-123 0 -235 38t-189 124q-31 -29 -73 -57.5t-94 -52t-113.5 -38t-131.5 -14.5q-104 0 -197.5 33t-162 97.5t-108.5 159.5t-40 220zM190 487q0 -115 37 -200.5t98.5 -142t143.5 -85t172 -28.5q121 0 218 44t165 101q-43 59 -67.5 135t-24.5 174 q0 113 38.5 207t108.5 162q-100 49 -199.5 68.5t-191.5 19.5q-102 0 -192 -26.5t-158 -82t-108 -141.5t-40 -205zM991 537h910q-10 88 -46 162.5t-95.5 129t-139.5 84t-174 29.5q-96 0 -177 -29.5t-139.5 -84t-94.5 -129t-44 -162.5z" />
<glyph unicode="&#xe7;" horiz-adv-x="1165" d="M133 485q0 111 43 205t119 162t181.5 105.5t232.5 37.5q168 0 301 -69v-62q-63 37 -138 57.5t-163 20.5q-115 0 -210.5 -34t-164 -94t-106.5 -144t-38 -185q0 -100 38 -183t106.5 -143.5t164 -94t210.5 -33.5q96 0 171.5 22.5t141.5 65.5v-64q-68 -39 -144.5 -58.5 t-168.5 -19.5q-14 0 -27.5 1.5t-28.5 1.5l-28 -91h12q33 0 64.5 -7t58 -22.5t43 -42t16.5 -65.5q0 -66 -50 -106.5t-134 -40.5q-37 0 -65.5 5t-55.5 15v53q57 -23 121 -22q49 0 88 22.5t39 73.5q0 47 -38 67.5t-87 20.5h-82l45 146q-104 14 -190 57t-147.5 108.5 t-95.5 150.5t-34 183z" />
<glyph unicode="&#xe8;" horiz-adv-x="1282" d="M133 485q0 111 38 205t106.5 162t163 105.5t206.5 37.5q106 0 196.5 -33.5t158 -95t108.5 -146.5t49 -185v-50h-969q2 -123 43 -209t108 -141t154 -79.5t183 -24.5q113 0 226.5 26.5t211.5 85.5v-59q-96 -57 -209.5 -82t-228.5 -25q-106 0 -204.5 29t-174.5 90.5 t-121 157.5t-45 231zM193 537h909q-10 88 -46 162.5t-95.5 129t-139.5 84t-174 29.5q-96 0 -177 -29.5t-139.5 -84t-94 -129t-43.5 -162.5zM408 1454h71l205 -309h-55z" />
<glyph unicode="&#xe9;" horiz-adv-x="1282" d="M133 485q0 111 38 205t106.5 162t163 105.5t206.5 37.5q106 0 196.5 -33.5t158 -95t108.5 -146.5t49 -185v-50h-969q2 -123 43 -209t108 -141t154 -79.5t183 -24.5q113 0 226.5 26.5t211.5 85.5v-59q-96 -57 -209.5 -82t-228.5 -25q-106 0 -204.5 29t-174.5 90.5 t-121 157.5t-45 231zM193 537h909q-10 88 -46 162.5t-95.5 129t-139.5 84t-174 29.5q-96 0 -177 -29.5t-139.5 -84t-94 -129t-43.5 -162.5zM618 1145l205 309h72l-221 -309h-56z" />
<glyph unicode="&#xea;" horiz-adv-x="1282" d="M133 485q0 111 38 205t106.5 162t163 105.5t206.5 37.5q106 0 196.5 -33.5t158 -95t108.5 -146.5t49 -185v-50h-969q2 -123 43 -209t108 -141t154 -79.5t183 -24.5q113 0 226.5 26.5t211.5 85.5v-59q-96 -57 -209.5 -82t-228.5 -25q-106 0 -204.5 29t-174.5 90.5 t-121 157.5t-45 231zM193 537h909q-10 88 -46 162.5t-95.5 129t-139.5 84t-174 29.5q-96 0 -177 -29.5t-139.5 -84t-94 -129t-43.5 -162.5zM385 1145l232 309h49l231 -309h-55l-201 248l-200 -248h-56z" />
<glyph unicode="&#xeb;" horiz-adv-x="1282" d="M133 485q0 111 38 205t106.5 162t163 105.5t206.5 37.5q106 0 196.5 -33.5t158 -95t108.5 -146.5t49 -185v-50h-969q2 -123 43 -209t108 -141t154 -79.5t183 -24.5q113 0 226.5 26.5t211.5 85.5v-59q-96 -57 -209.5 -82t-228.5 -25q-106 0 -204.5 29t-174.5 90.5 t-121 157.5t-45 231zM193 537h909q-10 88 -46 162.5t-95.5 129t-139.5 84t-174 29.5q-96 0 -177 -29.5t-139.5 -84t-94 -129t-43.5 -162.5zM416 1237v147h60v-147h-60zM807 1237v147h60v-147h-60z" />
<glyph unicode="&#xec;" horiz-adv-x="520" d="M13 1454h71l205 -309h-55zM231 0v973h56v-973h-56z" />
<glyph unicode="&#xed;" horiz-adv-x="520" d="M231 0v973h56v-973h-56zM233 1145l205 309h72l-221 -309h-56z" />
<glyph unicode="&#xee;" horiz-adv-x="520" d="M6 1145l232 309h49l231 -309h-55l-201 248l-200 -248h-56zM231 0v973h56v-973h-56z" />
<glyph unicode="&#xef;" horiz-adv-x="520" d="M37 1237v147h60v-147h-60zM231 0v973h56v-973h-56zM428 1237v147h60v-147h-60z" />
<glyph unicode="&#xf0;" horiz-adv-x="1417" d="M133 485q0 111 43 205t119 162t181.5 105.5t232.5 37.5q180 0 306 -69.5t199 -198.5q-25 123 -72.5 256t-129.5 268l-557 -84v52l530 77q-25 37 -57.5 80t-61.5 78h62q25 -29 56.5 -73t53.5 -76l279 41v-50l-250 -36q41 -68 80 -153t69.5 -180.5t50 -198.5t19.5 -206 q0 -115 -38 -214t-111.5 -173t-181 -116t-246.5 -42q-127 0 -232.5 38t-181.5 105.5t-119 161t-43 203.5zM190 485q0 -100 38 -183t106.5 -143.5t164 -94t210.5 -33.5t210 33.5t162.5 94t104.5 143.5t37 183t-37 184.5t-104.5 144.5t-162.5 94t-210 34t-210.5 -34t-164 -94 t-106.5 -144t-38 -185z" />
<glyph unicode="&#xf1;" horiz-adv-x="1341" d="M231 0v973h56v-121q82 53 188.5 98t239.5 45q88 0 162.5 -21.5t130 -65.5t87 -110.5t31.5 -154.5v-643h-55v643q0 145 -98.5 222t-257.5 77q-131 0 -236.5 -46t-191.5 -108v-788h-56zM364 1202q2 37 12.5 73t29 64.5t47 46t67.5 17.5t77 -23.5t75 -51.5t69.5 -50.5 t61.5 -22.5q27 0 45 13.5t30.5 34t18.5 46t6 50.5h55q-2 -37 -12 -73t-28.5 -64.5t-47 -46t-67.5 -17.5q-37 0 -75 23.5t-75 51t-70.5 51.5t-62.5 24q-53 0 -75.5 -47.5t-24.5 -98.5h-56z" />
<glyph unicode="&#xf2;" horiz-adv-x="1417" d="M133 485q0 111 43 205t119 162t181.5 105.5t232.5 37.5q125 0 231.5 -37.5t182 -105.5t118.5 -162t43 -205t-43 -204t-118.5 -160.5t-182 -105.5t-231.5 -38q-127 0 -232.5 38t-181.5 105.5t-119 161t-43 203.5zM190 485q0 -100 38 -183t106.5 -143.5t164 -94 t210.5 -33.5t210 33.5t163.5 94t106.5 143.5t38 183t-38 184.5t-106.5 144.5t-163.5 94t-210 34t-210.5 -34t-164 -94t-106.5 -144t-38 -185zM465 1454h71l205 -309h-55z" />
<glyph unicode="&#xf3;" horiz-adv-x="1417" d="M133 485q0 111 43 205t119 162t181.5 105.5t232.5 37.5q125 0 231.5 -37.5t182 -105.5t118.5 -162t43 -205t-43 -204t-118.5 -160.5t-182 -105.5t-231.5 -38q-127 0 -232.5 38t-181.5 105.5t-119 161t-43 203.5zM190 485q0 -100 38 -183t106.5 -143.5t164 -94 t210.5 -33.5t210 33.5t163.5 94t106.5 143.5t38 183t-38 184.5t-106.5 144.5t-163.5 94t-210 34t-210.5 -34t-164 -94t-106.5 -144t-38 -185zM669 1145l205 309h72l-221 -309h-56z" />
<glyph unicode="&#xf4;" horiz-adv-x="1417" d="M133 485q0 111 43 205t119 162t181.5 105.5t232.5 37.5q125 0 231.5 -37.5t182 -105.5t118.5 -162t43 -205t-43 -204t-118.5 -160.5t-182 -105.5t-231.5 -38q-127 0 -232.5 38t-181.5 105.5t-119 161t-43 203.5zM190 485q0 -100 38 -183t106.5 -143.5t164 -94 t210.5 -33.5t210 33.5t163.5 94t106.5 143.5t38 183t-38 184.5t-106.5 144.5t-163.5 94t-210 34t-210.5 -34t-164 -94t-106.5 -144t-38 -185zM452 1145l232 309h49l231 -309h-55l-201 248l-200 -248h-56z" />
<glyph unicode="&#xf5;" horiz-adv-x="1417" d="M133 485q0 111 43 205t119 162t181.5 105.5t232.5 37.5q125 0 231.5 -37.5t182 -105.5t118.5 -162t43 -205t-43 -204t-118.5 -160.5t-182 -105.5t-231.5 -38q-127 0 -232.5 38t-181.5 105.5t-119 161t-43 203.5zM190 485q0 -100 38 -183t106.5 -143.5t164 -94 t210.5 -33.5t210 33.5t163.5 94t106.5 143.5t38 183t-38 184.5t-106.5 144.5t-163.5 94t-210 34t-210.5 -34t-164 -94t-106.5 -144t-38 -185zM411 1202q2 37 12.5 73t29 64.5t47 46t67.5 17.5t77 -23.5t75 -51.5t69.5 -50.5t61.5 -22.5q27 0 45 13.5t30.5 34t18.5 46t6 50.5 h55q-2 -37 -12 -73t-28.5 -64.5t-47 -46t-67.5 -17.5q-37 0 -75 23.5t-75 51t-70.5 51.5t-62.5 24q-53 0 -75.5 -47.5t-24.5 -98.5h-56z" />
<glyph unicode="&#xf6;" horiz-adv-x="1417" d="M133 485q0 111 43 205t119 162t181.5 105.5t232.5 37.5q125 0 231.5 -37.5t182 -105.5t118.5 -162t43 -205t-43 -204t-118.5 -160.5t-182 -105.5t-231.5 -38q-127 0 -232.5 38t-181.5 105.5t-119 161t-43 203.5zM190 485q0 -100 38 -183t106.5 -143.5t164 -94 t210.5 -33.5t210 33.5t163.5 94t106.5 143.5t38 183t-38 184.5t-106.5 144.5t-163.5 94t-210 34t-210.5 -34t-164 -94t-106.5 -144t-38 -185zM483 1237v147h60v-147h-60zM874 1237v147h60v-147h-60z" />
<glyph unicode="&#xf7;" d="M135 614v56h1122v-56h-1122zM664 199v108h71v-108h-71zM664 981v106h71v-106h-71z" />
<glyph unicode="&#xf8;" horiz-adv-x="1417" d="M133 485q0 111 43 205t119 162t181.5 105.5t232.5 37.5q96 0 180 -22.5t153 -63.5l123 142l39 -33l-119 -137q94 -70 146.5 -171.5t52.5 -224.5q0 -111 -43 -204t-118.5 -160.5t-182 -105.5t-231.5 -38q-190 0 -332 82l-121 -139l-41 35l117 135q-94 68 -146.5 169 t-52.5 226zM190 485q0 -113 46.5 -204t130.5 -150l639 735q-61 35 -136 55.5t-161 20.5q-115 0 -210.5 -34t-164 -94t-106.5 -144t-38 -185zM412 102q125 -72 297 -71q115 0 210 33.5t163.5 94t106.5 143.5t38 183q0 111 -46 202t-130 153z" />
<glyph unicode="&#xf9;" horiz-adv-x="1306" d="M209 371v602h55v-602q0 -92 24.5 -158t71 -105.5t112 -58t144.5 -18.5q61 0 120 16t111 42t96 58.5t77 67.5v758h55v-973h-55v150q-31 -29 -74 -60t-94 -55.5t-110.5 -41t-125.5 -16.5q-92 0 -166.5 23t-128 70t-83 121.5t-29.5 179.5zM428 1454h71l205 -309h-55z" />
<glyph unicode="&#xfa;" horiz-adv-x="1306" d="M209 371v602h55v-602q0 -92 24.5 -158t71 -105.5t112 -58t144.5 -18.5q61 0 120 16t111 42t96 58.5t77 67.5v758h55v-973h-55v150q-31 -29 -74 -60t-94 -55.5t-110.5 -41t-125.5 -16.5q-92 0 -166.5 23t-128 70t-83 121.5t-29.5 179.5zM604 1145l205 309h72l-221 -309 h-56z" />
<glyph unicode="&#xfb;" horiz-adv-x="1306" d="M209 371v602h55v-602q0 -92 24.5 -158t71 -105.5t112 -58t144.5 -18.5q61 0 120 16t111 42t96 58.5t77 67.5v758h55v-973h-55v150q-31 -29 -74 -60t-94 -55.5t-110.5 -41t-125.5 -16.5q-92 0 -166.5 23t-128 70t-83 121.5t-29.5 179.5zM385 1145l232 309h49l231 -309h-55 l-201 248l-200 -248h-56z" />
<glyph unicode="&#xfc;" horiz-adv-x="1306" d="M209 371v602h55v-602q0 -92 24.5 -158t71 -105.5t112 -58t144.5 -18.5q61 0 120 16t111 42t96 58.5t77 67.5v758h55v-973h-55v150q-31 -29 -74 -60t-94 -55.5t-110.5 -41t-125.5 -16.5q-92 0 -166.5 23t-128 70t-83 121.5t-29.5 179.5zM416 1237v147h60v-147h-60z M807 1237v147h60v-147h-60z" />
<glyph unicode="&#xfd;" horiz-adv-x="1306" d="M209 371v602h55v-602q0 -92 24.5 -158t71 -105.5t112 -58t144.5 -18.5q61 0 120 16t111 42t96 58.5t77 67.5v758h55v-977q0 -111 -39 -188.5t-105.5 -126t-151.5 -71t-177 -22.5t-185 20.5t-173 57.5v60q72 -37 167 -60.5t191 -23.5q80 0 156 18t134 60t93 110t35 166 v154q-31 -29 -74 -60t-94 -55.5t-111.5 -41t-126.5 -16.5q-90 0 -164.5 23t-128 70t-83 121.5t-29.5 179.5zM602 1145l205 309h72l-221 -309h-56z" />
<glyph unicode="&#xfe;" horiz-adv-x="1349" d="M231 -389v1843h56v-602q82 53 188.5 98t239.5 45q111 0 204 -34.5t158.5 -100t102.5 -160t37 -213.5q0 -131 -41 -227t-112 -158.5t-166 -93.5t-202 -31q-121 0 -221 30t-188 83v-479h-56zM287 150q47 -29 92 -51.5t93 -38t103.5 -22.5t122.5 -7q88 0 172 24.5 t147.5 79.5t102.5 142.5t39 209.5q0 106 -34.5 191.5t-94 144t-140.5 89t-175 30.5q-131 0 -236.5 -46t-191.5 -108v-638z" />
<glyph unicode="&#xff;" horiz-adv-x="1306" d="M209 371v602h55v-602q0 -92 24.5 -158t71 -105.5t112 -58t144.5 -18.5q61 0 120 16t111 42t96 58.5t77 67.5v758h55v-977q0 -111 -39 -188.5t-105.5 -126t-151.5 -71t-177 -22.5t-185 20.5t-173 57.5v60q72 -37 167 -60.5t191 -23.5q80 0 156 18t134 60t93 110t35 166 v154q-31 -29 -74 -60t-94 -55.5t-111.5 -41t-126.5 -16.5q-90 0 -164.5 23t-128 70t-83 121.5t-29.5 179.5zM414 1237v147h60v-147h-60zM805 1237v147h60v-147h-60z" />
<glyph unicode="&#x152;" horiz-adv-x="2807" d="M168 692q0 160 58.5 292t166 226.5t259 145.5t337.5 51q281 0 476.5 -114.5t281.5 -313.5v405h856v-57h-795v-571h740v-58h-740v-395q0 -123 68 -184.5t233 -61.5h539v-57h-539q-201 0 -281.5 80t-80.5 223v103q-86 -199 -281.5 -314t-476.5 -115q-186 0 -337.5 51.5 t-259 145.5t-166 226t-58.5 292zM231 692q0 -147 54.5 -269t153 -208t238.5 -133t312 -47t312.5 47t238.5 133t152.5 208t54.5 269t-54.5 269t-152.5 208t-238.5 133.5t-312.5 47.5t-312 -47.5t-238.5 -133.5t-153 -207.5t-54.5 -269.5z" />
<glyph unicode="&#x153;" horiz-adv-x="2373" d="M133 485q0 111 43 205t119 162t181.5 105.5t232.5 37.5q205 0 348 -94t196 -254q47 160 175 254t311 94q106 0 196 -33.5t158 -94t109 -145.5t49 -185v-52h-969q2 -123 43 -209t107.5 -141t153.5 -79.5t183 -24.5q113 0 226.5 26.5t212.5 85.5v-59q-96 -57 -210 -82 t-229 -25q-88 0 -170.5 19.5t-151.5 60.5t-120 105.5t-76 154.5q-53 -156 -196.5 -248t-345.5 -92q-127 0 -232.5 38t-181.5 105.5t-119 161t-43 203.5zM190 485q0 -100 38 -183t106.5 -143.5t164 -94t210.5 -33.5t210 33.5t163.5 94t106.5 143.5t38 183t-38 184.5 t-106.5 144.5t-163.5 94t-210 34t-210.5 -34t-164 -94t-106.5 -144t-38 -185zM1284 537h909q-10 88 -46 162.5t-95 129t-139 84t-174 29.5q-96 0 -177 -29.5t-139.5 -84t-94.5 -129t-44 -162.5z" />
<glyph unicode="&#x178;" horiz-adv-x="1290" d="M0 1384h72l575 -759l570 759h73l-612 -823v-561h-64v561zM420 1616v147h60v-147h-60zM811 1616v147h60v-147h-60z" />
<glyph unicode="&#x2c6;" horiz-adv-x="1228" d="M358 1145l232 309h49l231 -309h-55l-201 248l-200 -248h-56z" />
<glyph unicode="&#x2dc;" horiz-adv-x="1228" d="M317 1202q2 37 12.5 73t29 64.5t47 46t67.5 17.5t77 -23.5t75 -51.5t69.5 -50.5t61.5 -22.5q27 0 45 13.5t30.5 34t18.5 46t6 50.5h55q-2 -37 -12 -73t-28.5 -64.5t-47 -46t-67.5 -17.5q-37 0 -75 23.5t-75 51t-70.5 51.5t-62.5 24q-53 0 -75.5 -47.5t-24.5 -98.5h-56z " />
<glyph unicode="&#x2000;" horiz-adv-x="929" />
<glyph unicode="&#x2001;" horiz-adv-x="1858" />
<glyph unicode="&#x2002;" horiz-adv-x="929" />
<glyph unicode="&#x2003;" horiz-adv-x="1858" />
<glyph unicode="&#x2004;" horiz-adv-x="619" />
<glyph unicode="&#x2005;" horiz-adv-x="464" />
<glyph unicode="&#x2006;" horiz-adv-x="309" />
<glyph unicode="&#x2007;" horiz-adv-x="309" />
<glyph unicode="&#x2008;" horiz-adv-x="232" />
<glyph unicode="&#x2009;" horiz-adv-x="371" />
<glyph unicode="&#x200a;" horiz-adv-x="103" />
<glyph unicode="&#x2010;" horiz-adv-x="935" d="M211 578v55h514v-55h-514z" />
<glyph unicode="&#x2011;" horiz-adv-x="935" d="M211 578v55h514v-55h-514z" />
<glyph unicode="&#x2012;" horiz-adv-x="935" d="M211 578v55h514v-55h-514z" />
<glyph unicode="&#x2013;" horiz-adv-x="1421" d="M211 578v55h999v-55h-999z" />
<glyph unicode="&#x2014;" horiz-adv-x="2441" d="M211 578v55h2019v-55h-2019z" />
<glyph unicode="&#x2018;" horiz-adv-x="571" d="M166 1038q0 111 52 204t157 163l31 -45q-86 -55 -132.5 -139t-46.5 -185q0 -61 19 -123h-64q-8 33 -12 64t-4 61z" />
<glyph unicode="&#x2019;" horiz-adv-x="571" d="M166 938q86 55 132 138t46 184q0 63 -18 124h63q16 -59 17 -124q0 -111 -52.5 -204t-156.5 -163z" />
<glyph unicode="&#x201a;" horiz-adv-x="571" d="M166 -217q86 55 132 138t46 184q0 63 -18 124h63q16 -59 17 -124q0 -111 -52.5 -204t-156.5 -163z" />
<glyph unicode="&#x201c;" horiz-adv-x="882" d="M165 1038q0 111 52.5 204t156.5 163l31 -45q-86 -55 -132 -138t-46 -184q0 -63 18 -124h-63q-16 59 -17 124zM477 1038q0 111 52.5 204t156.5 163l31 -45q-86 -55 -132 -138t-46 -184q0 -63 18 -124h-63q-16 59 -17 124z" />
<glyph unicode="&#x201d;" horiz-adv-x="882" d="M166 938q86 55 132 138t46 184q0 63 -18 124h63q16 -59 17 -124q0 -111 -52.5 -204t-156.5 -163zM477 938q86 55 132 138t46 184q0 63 -18 124h63q16 -59 17 -124q0 -111 -52.5 -204t-156.5 -163z" />
<glyph unicode="&#x201e;" horiz-adv-x="882" d="M166 -217q86 55 132 138t46 184q0 63 -18 124h63q16 -59 17 -124q0 -111 -52.5 -204t-156.5 -163zM477 -217q86 55 132 138t46 184q0 63 -18 124h63q16 -59 17 -124q0 -111 -52.5 -204t-156.5 -163z" />
<glyph unicode="&#x2022;" horiz-adv-x="675" d="M168 662q0 63 47 100t123 37t123 -37t47 -100t-47 -100.5t-123 -37.5t-123 37t-47 101z" />
<glyph unicode="&#x2026;" horiz-adv-x="1689" d="M244 0v111h75v-111h-75zM807 0v111h76v-111h-76zM1370 0v111h76v-111h-76z" />
<glyph unicode="&#x202f;" horiz-adv-x="371" />
<glyph unicode="&#x2039;" horiz-adv-x="663" d="M125 508l346 407h68l-342 -407l342 -408h-68z" />
<glyph unicode="&#x203a;" horiz-adv-x="663" d="M125 100h68l346 408l-346 407h-68l342 -407z" />
<glyph unicode="&#x205f;" horiz-adv-x="464" />
<glyph unicode="&#x20ac;" horiz-adv-x="1327" d="M76 518l12 55h178q-2 29 -3 57.5t-1 59.5q0 43 3 82t7 78h-196l12 55h193q25 127 80 221.5t133.5 157t178 93t214.5 30.5q76 0 161 -13.5t148 -41.5v-64q-61 29 -146 45.5t-165 16.5q-221 0 -358.5 -115t-182.5 -330h739l-12 -55h-737q-4 -39 -7 -79t-3 -81q0 -61 6 -117 h680l-13 -55h-661q37 -236 176 -359.5t373 -123.5q80 0 169 16.5t150 44.5v-63q-63 -29 -152 -42.5t-165 -13.5q-119 0 -221.5 33t-182.5 99.5t-134 168t-75 240.5h-198z" />
<glyph unicode="&#x2122;" horiz-adv-x="1845" d="M70 1329v55h624v-55h-284v-512h-56v512h-284zM893 817v567h59l293 -401l293 401h59v-567h-57v475l-268 -366h-53l-269 366v-475h-57z" />
<glyph unicode="&#xe000;" horiz-adv-x="972" d="M0 0v973h973v-973h-973z" />
</font>
</defs>
</svg>
